<svg width="262" height="289" viewBox="0 0 262 289" fill="none" xmlns="http://www.w3.org/2000/svg">
<g opacity="0.08">
<path d="M228.428 268.59C218.535 266.641 217.355 259.353 215.856 250.115C214.17 239.801 212.09 226.969 196.952 216.737C189.363 211.62 182.094 208.412 174.712 206.93C168.117 205.611 161.559 205.692 154.702 207.194C141.962 209.996 129.933 217.468 118.28 224.675C107.375 231.436 96.0963 238.44 83.9555 241.892C77.4354 243.76 71.2151 244.45 64.9385 244.044C57.8939 243.577 50.9616 241.73 43.767 238.38C31.1952 232.532 18.6984 230.502 6.6325 232.329C4.40293 232.674 2.1921 233.141 0 233.75V234.38C2.22957 233.771 4.45914 233.284 6.72618 232.938C18.6984 231.111 31.0828 233.141 43.5609 238.928C52.423 243.049 60.6293 244.755 68.3672 244.755C87.0469 244.755 102.991 234.867 118.561 225.223C130.701 217.691 142.149 210.585 154.815 207.803C161.597 206.301 168.08 206.22 174.6 207.539C181.925 209.001 189.139 212.189 196.652 217.264C203.303 221.751 211.584 227.335 215.313 250.216C216.081 254.987 216.755 259.109 218.535 262.418C220.503 266.093 223.631 268.245 228.334 269.179C242.255 271.94 250.536 276.305 254.377 282.924C255.295 284.488 255.97 286.193 256.419 288H257C256.532 286.071 255.838 284.285 254.845 282.599C250.911 275.839 242.517 271.392 228.428 268.59Z" fill="#848484"/>
<path d="M217.555 275.324C205.77 273.427 204.665 269.612 202.267 261.296C200.169 254.05 197.002 243.069 184.618 227.144C167.963 205.708 150.295 219.11 129.836 234.632C109.096 250.376 85.5831 268.199 56.8806 255.362C45.8829 250.437 34.7916 248.014 23.8876 248.115C15.7752 248.196 7.7377 249.69 0 252.556V253.202C7.7377 250.316 15.7564 248.822 23.8876 248.741C34.7166 248.62 45.733 251.062 56.6557 255.947C69.5831 261.74 82.6417 261.841 96.5433 256.29C108.703 251.426 119.607 243.15 130.155 235.157C140.272 227.487 149.827 220.241 158.763 217.657C168.637 214.791 176.712 217.94 184.187 227.568C196.496 243.412 199.644 254.312 201.724 261.518C204.122 269.834 205.34 274.012 217.48 275.97C224.581 277.121 229.021 279.946 230.689 284.367C231.101 285.477 231.344 286.688 231.438 288H232C231.925 286.607 231.663 285.315 231.213 284.145C229.452 279.462 224.862 276.515 217.555 275.324Z" fill="#848484"/>
<path d="M159.441 248.724C154.243 244.965 147.269 245.087 138.724 249.151C131.937 252.361 124.14 258.051 115.539 266.017C106.752 274.186 98.8987 283.127 94 289H94.7479C99.6466 283.127 107.313 274.43 115.895 266.464C124.458 258.519 132.199 252.87 138.93 249.679C147.287 245.717 154.075 245.554 159.104 249.212C170.79 257.686 176.998 271.991 182.476 284.611C183.13 286.094 183.747 287.557 184.383 288.98H185C184.327 287.476 183.654 285.932 182.981 284.347C177.502 271.666 171.257 257.279 159.441 248.724Z" fill="#848484"/>
<path d="M144.532 269.365C142.137 267.505 139.041 267.546 135.337 269.486C132.425 271.022 129.126 273.731 125.532 277.551C122.105 281.209 119.027 285.191 117 288H117.719C123.468 280.138 136.645 263.989 144.201 269.85C149.084 273.65 151.941 281.189 154.41 288H155C152.494 281.067 149.619 273.306 144.532 269.365Z" fill="#848484"/>
<path d="M51.7985 269.11C47.0048 267.797 42.0432 266.443 37.5852 264.831C26.5241 260.79 13.7097 264.194 4.90566 267.757C3.17096 268.454 1.52952 269.19 0 269.927V270.583C1.58548 269.827 3.30153 269.051 5.11084 268.314C13.8216 264.791 26.5055 261.427 37.3986 265.408C41.8566 267.04 46.8369 268.394 51.6493 269.708C62.4679 272.653 72.6895 275.44 73.3983 280.496C73.6968 282.626 72.3165 285.114 69.2201 288H70.0408C72.9693 285.114 74.2564 282.606 73.9579 280.396C73.1932 274.943 63.2886 272.255 51.7985 269.11Z" fill="#848484"/>
<path d="M45.3179 277.496C41.5761 276.796 37.0216 276.837 32.8262 277.62C25.059 279.061 9.86487 283.675 0 286.785V287.423C9.86487 284.313 25.1535 279.679 32.9396 278.217C37.0783 277.455 41.5572 277.393 45.2423 278.093C50.5716 279.103 52.4426 281.224 53.0851 282.851C53.6709 284.313 53.5198 286.043 52.6504 288H53.293C54.1245 285.982 54.219 284.169 53.5953 282.604C52.3292 279.432 48.3983 278.073 45.3179 277.496Z" fill="#848484"/>
<path d="M23.9684 165.048C32.4088 171.251 37.9174 180.147 42.7539 188.003C48.2439 196.899 53.0056 204.592 60.4376 205.837C61.1286 205.959 61.8382 206 62.5477 206C68.2805 206 75.0963 202.388 83.7421 194.777C90.2218 189.064 95.6185 183.881 100.38 179.29C110.427 169.598 117.691 162.599 125.72 160.334C133.918 158.008 142.918 160.456 156.774 168.761C168.09 175.556 181.591 180.229 193.785 181.575C199.462 182.208 204.615 182.086 208.705 181.188C213.019 180.249 216.044 178.556 217.668 176.127C219.89 172.801 220.432 166.619 210.33 156.029C198.248 143.357 184.504 141.827 169.958 140.215C160.322 139.154 150.35 138.032 140.285 133.604C128.895 128.605 119.016 119.912 110.072 107.078C103.461 97.5893 95.7492 93.1002 87.7383 94.1C82.2856 94.7734 76.9263 97.9157 71.8098 103.405C66.6746 108.955 62.0436 116.607 58.0848 126.156C55.1344 133.236 51.8852 136.869 48.0945 137.236C39.8968 138.032 30.4107 122.973 21.2607 108.404C16.6857 101.119 11.9613 93.6103 7.46102 88.2235C5.12684 85.428 2.99806 83.3671 1 82V82.755C7.29296 87.2848 14.1274 98.1402 20.7939 108.751C25.3875 116.056 30.1493 123.626 34.7243 129.135C39.6167 135.012 43.7996 137.889 47.4783 137.889C47.7023 137.889 47.9264 137.868 48.1505 137.848C52.1466 137.46 55.5639 133.726 58.589 126.421C62.5291 116.933 67.1041 109.342 72.2019 103.854C77.2251 98.4463 82.4723 95.3651 87.7943 94.7122C95.5811 93.7532 103.144 98.1606 109.624 107.465C118.624 120.402 128.596 129.135 140.061 134.175C150.201 138.644 160.21 139.746 169.883 140.827C184.336 142.439 197.986 143.949 209.937 156.478C219.76 166.782 219.312 172.659 217.22 175.78C214.158 180.331 205.418 182.269 193.841 180.984C181.722 179.637 168.296 174.985 157.035 168.231C143.049 159.844 133.936 157.396 125.571 159.763C117.41 162.068 110.109 169.108 100.007 178.862C95.245 183.453 89.867 188.636 83.3873 194.328C73.7892 202.776 66.5252 206.245 60.5123 205.245C53.3231 204.062 48.636 196.471 43.202 187.676C38.3283 179.78 32.8009 170.843 24.2671 164.558C17.1899 159.355 10.4488 156.743 4.15582 156.743C3.09143 156.743 2.04571 156.824 1 156.967V157.579C8.07724 156.539 15.7894 159.049 23.9684 165.048Z" fill="#848484"/>
<path d="M10.5254 224.736C19.2121 224.88 28.9307 226.79 37.5049 228.453C49.7938 230.855 59.4749 232.744 60.6757 228.391C62.4768 221.862 56.6231 216.461 46.9045 207.529C39.9439 201.123 31.2572 193.156 21.9701 181.698C14.9907 173.095 8.03005 169.194 1.31333 170.138C0.900567 170.2 0.469045 170.282 0 170.385V171.021C0.450283 170.918 0.919329 170.816 1.38837 170.754C7.91748 169.851 14.6905 173.67 21.5573 182.109C30.8819 193.608 39.5687 201.595 46.5481 208.022C56.0791 216.79 61.8389 222.087 60.1504 228.227C59.0997 232.046 49.1372 230.095 37.6174 227.857C25.1784 225.434 10.5817 222.58 0.0187618 225.044V225.681C2.98313 224.983 6.49159 224.654 10.5254 224.736Z" fill="#848484"/>
<path d="M35.6761 222C40.6048 222 43.3724 221.023 43.9032 219.047C45.0785 214.743 35.278 206.986 29.3067 202.744C20.8711 196.734 10.8241 191.078 5.42155 189.269C3.62069 188.665 1.80087 188.25 0.0189565 188V188.624C1.744 188.873 3.50695 189.289 5.25094 189.872C10.6156 191.66 20.6057 197.275 28.9845 203.264C38.747 210.23 44.1117 216.053 43.3345 218.86C42.5763 221.605 35.8277 222.104 24.3212 220.274C14.9946 218.798 5.2699 216.24 0 214.618V215.262C5.30781 216.905 14.9756 219.421 24.2264 220.898C28.8707 221.626 32.662 222 35.6761 222Z" fill="#848484"/>
<path d="M11.1797 210C13.442 210 14.7051 209.52 14.9502 208.56C15.4781 206.641 11.7075 203.449 8.44602 201.112C5.63696 199.088 2.432 197.168 0 196V196.689C2.37544 197.857 5.44844 199.714 8.14437 201.654C12.3297 204.659 14.724 207.246 14.4035 208.393C13.8945 210.25 6.33451 209.207 0 207.642V208.268C1.90412 208.727 4.03448 209.186 6.10828 209.52C8.16323 209.833 9.84112 210 11.1797 210Z" fill="#848484"/>
<path d="M89.1807 105.238C91.8437 104.646 94.2833 105.157 96.3877 106.771C104.378 112.862 109.555 118.789 114.137 124.001C121.177 132.013 126.727 138.348 138.907 142.006C146.599 144.315 150.23 146.442 149.988 148.526C149.802 150.141 147.195 151.428 142.223 152.368C137.399 153.267 130.433 153.82 122.09 153.942C115.795 154.045 109.257 156.722 102.087 162.179C95.8293 166.961 89.9062 173.195 84.6729 178.713C76.944 186.867 70.1837 194 64.6524 194C64.1123 194 63.5907 193.939 63.0879 193.796C58.5251 192.549 54.8934 189.013 52.584 183.557C50.256 177.998 49.4734 170.824 50.3487 162.792C51.1495 155.557 53.4776 148.383 57.128 142.047C70.109 119.463 80.8929 107.078 89.1807 105.238ZM91.2852 105.606C90.652 105.606 89.981 105.688 89.3106 105.831C81.1904 107.65 70.5189 119.934 57.6123 142.374C54.0179 148.628 51.708 155.72 50.9258 162.873C50.0691 170.782 50.8333 177.834 53.124 183.291C55.3403 188.584 58.8413 192.018 63.2364 193.203C63.702 193.326 64.1867 193.387 64.6709 193.387C69.9602 193.387 76.6463 186.336 84.2823 178.283C89.5157 172.745 95.4569 166.49 101.771 161.688C109.034 156.169 115.683 153.431 122.09 153.329C130.415 153.206 137.343 152.654 142.129 151.755C148.293 150.59 149.355 149.18 149.448 148.444C149.709 146.114 142.073 143.559 138.776 142.578C126.448 138.858 120.842 132.482 113.765 124.409C109.202 119.218 104.042 113.332 96.0899 107.262C94.6373 106.158 93.0357 105.606 91.2852 105.606Z" fill="#848484"/>
<path d="M166.572 148.252C169.98 145.875 174.413 145.367 179.795 146.789C184.059 147.907 188.92 150.223 194.246 153.677C203.11 159.427 210.354 166.457 210.708 166.803C213.315 168.814 214.358 170.318 213.892 171.436C213.446 172.472 211.658 173 208.455 173C205.717 173 201.955 172.614 197.132 171.862C188.398 170.481 178.435 168.185 172.551 166.62C162.737 164.019 158.528 161.703 158.044 158.676C157.616 155.933 160.334 152.62 166.572 148.252ZM174.208 146.586C171.377 146.586 168.938 147.317 166.89 148.739C160.949 152.904 158.23 156.115 158.602 158.513C159.124 161.947 166.014 164.223 172.681 165.99C188.844 170.277 211.992 174.463 213.371 171.151C213.557 170.704 213.427 169.607 210.373 167.25L210.354 167.229C210.28 167.169 202.961 159.996 193.967 154.165C188.697 150.752 183.891 148.456 179.683 147.358C177.727 146.85 175.902 146.586 174.208 146.586Z" fill="#848484"/>
<path d="M262 161.1C260.668 159.585 259.148 158.03 257.421 156.475C250.853 150.561 242.522 145.69 232.651 141.986C220.322 137.362 205.554 134.538 188.759 133.596C179.151 133.064 160.724 131.202 145.167 124.674C128.785 117.819 119.703 107.689 118.201 94.572C116.456 79.3879 118.164 69.9746 123.587 64.92C129.517 59.3948 140.251 59.1493 156.389 64.2243C167.592 67.744 176.655 72.5735 183.936 76.4616C191.123 80.3088 196.809 83.3374 201.876 83.8695C207.374 84.4424 211.671 82.0073 215.8 75.9705C218.427 72.1233 220.51 68.4807 222.349 65.2679C226.046 58.7809 228.729 54.0947 233.101 52.3553C237.718 50.5136 243.967 52.0688 254.025 57.5531C256.896 59.1083 259.542 60.8478 262 62.6486V61.9119C259.617 60.1725 257.046 58.5149 254.287 57.0006C244.079 51.4344 237.699 49.8792 232.914 51.7619C228.354 53.5831 225.652 58.3307 221.88 64.92C220.06 68.1124 217.977 71.7345 215.368 75.5816C206.886 88.0031 198.348 83.4397 184.199 75.8886C176.899 71.98 167.798 67.1301 156.558 63.6104C140.213 58.4944 129.31 58.7605 123.23 64.4289C117.657 69.6267 115.893 79.2242 117.657 94.6334C119.196 107.996 128.391 118.289 144.979 125.247C160.611 131.796 179.114 133.658 188.74 134.21C205.479 135.131 220.172 137.955 232.445 142.559C242.24 146.243 250.516 151.072 257.027 156.925C258.941 158.644 260.593 160.363 262 162V161.1V161.1Z" fill="#848484"/>
<path d="M262 148.201C258.05 144.945 253.299 141.668 247.914 138.575C232.617 129.768 214.581 123.643 197.16 121.35C179.515 119.015 166.641 116.454 156.654 113.259C143.891 109.204 135.842 104.145 132.041 97.8364C129.469 93.5557 128.911 88.6196 130.345 83.1304C131.426 79.075 133.401 76.3919 136.401 74.9377C146.555 69.9811 166.026 80.3654 183.205 89.5208C189.484 92.8798 195.427 96.034 200.477 98.2051C208.992 101.871 214.227 102.691 217.991 100.909C221.624 99.1882 223.711 95.2147 226.58 89.7051C228.313 86.387 230.269 82.6389 233.027 78.5015C235.971 74.0775 239.697 71.763 244.113 71.6196C250.15 71.4353 256.69 75.3473 262 79.6485V78.8907C253.746 72.2751 247.802 70.9028 244.113 71.0052C239.53 71.1486 235.654 73.5449 232.598 78.1329C229.822 82.2907 227.866 86.0798 226.114 89.3979C220.488 100.151 217.916 105.066 200.682 97.6316C195.651 95.4605 189.726 92.3063 183.447 88.9678C166.156 79.7509 146.555 69.3052 136.177 74.3847C133.047 75.9003 130.904 78.8088 129.805 82.9871C128.314 88.64 128.892 93.7605 131.556 98.2051C135.45 104.616 143.593 109.757 156.505 113.853C166.529 117.048 179.441 119.609 197.104 121.944C214.451 124.237 232.412 130.341 247.653 139.107C253.112 142.261 257.994 145.641 262 149V148.201Z" fill="#848484"/>
<path d="M261.981 139.16C251.35 129.013 236.932 124.954 225.629 121.798C214.662 118.723 206.754 116.509 207.612 110.524C207.854 108.781 210.055 108.904 213.916 109.273C217.497 109.601 221.936 110.032 226.133 108.474C231.094 106.629 234.507 102.468 236.559 95.7447C237.995 91.0301 240.289 88.3244 243.348 87.7504C248.944 86.6845 256.293 92.67 262 98.6144V97.7535C261.851 97.61 261.72 97.446 261.571 97.3025C254.036 89.6772 247.881 86.2541 243.255 87.1355C239.972 87.7504 237.548 90.5791 236.037 95.5397C231.523 110.319 220.966 109.314 213.972 108.658C210.167 108.289 207.407 108.044 207.071 110.442C206.642 113.475 208.153 115.812 211.883 117.76C215.203 119.502 219.978 120.855 225.499 122.392C236.895 125.59 251.424 129.669 262 140V139.16H261.981Z" fill="#848484"/>
<path d="M262 133.248C258.408 130.7 254.465 127.087 251.077 123.202C246.004 117.375 242.987 111.987 242.598 107.997C242.394 105.846 242.968 104.134 244.338 102.922C249.152 98.6615 257.001 105.763 262 111.423V110.525C260.963 109.376 259.834 108.185 258.649 107.058C255.891 104.447 253.336 102.651 251.096 101.732C248.245 100.562 245.838 100.792 243.986 102.442C242.468 103.778 241.82 105.679 242.043 108.081C242.82 116.226 253.65 128.152 262 134V133.248V133.248Z" fill="#848484"/>
<path d="M142.145 80.2647C148.048 78.8283 159.163 83.2392 175.153 93.334C187.027 100.815 197.316 108.841 197.439 108.931C199.662 110.731 200.428 112.208 199.774 113.341C199.027 114.534 196.617 115 193.441 115C189.089 115 183.261 114.13 178.143 113.018C165.683 110.327 153.801 105.755 146.366 100.799C137.997 95.2154 135.159 89.1665 138.166 83.2998C138.969 81.7219 140.314 80.7097 142.145 80.2647ZM144.518 80.6084C143.696 80.6084 142.948 80.6897 142.257 80.8516C140.594 81.2562 139.38 82.1669 138.651 83.583C137.157 86.4961 137.176 89.4495 138.727 92.3828C140.128 95.0531 142.798 97.7034 146.646 100.272C154.025 105.188 165.832 109.74 178.235 112.41C183.559 113.563 188.585 114.251 192.377 114.353C197.551 114.494 198.934 113.543 199.289 112.977C199.886 111.985 198.43 110.509 197.104 109.437C196.618 109.052 160.004 80.6089 144.518 80.6084Z" fill="#848484"/>
<path d="M151.686 91.126C154.104 90.4615 159.459 92.4352 167.621 96.9502C173.664 100.293 179.075 103.889 179.149 103.928C179.428 104.162 180.302 104.828 179.893 105.473C179.651 105.863 178.907 106 177.903 106C175.152 106 170.486 104.867 169.295 104.573C163.103 103.01 157.358 100.761 153.936 98.5527C150.497 96.3245 149.306 94.1548 150.385 92.1025C150.645 91.6141 151.092 91.2823 151.686 91.126ZM152.727 91.5947C152.374 91.5947 152.077 91.6337 151.798 91.7119C151.333 91.8292 151.035 92.0642 150.85 92.3965C149.939 94.1164 151.054 96.0123 154.196 98.0449C157.562 100.234 163.252 102.462 169.406 104.006C175.728 105.589 179.112 105.628 179.428 105.14C179.446 105.1 179.408 104.866 178.814 104.417C178.294 104.065 159.291 91.5947 152.727 91.5947Z" fill="#848484"/>
<path d="M80.6894 123.581C85.2458 119.929 89.3377 118.443 92.834 119.186C95.7166 119.805 98.1897 121.889 100.198 125.397C102.17 128.823 103.118 132.785 102.988 136.871C102.858 140.936 101.649 144.836 99.5107 148.138L98.9336 149.025C91.8294 159.983 84.5023 171.312 68.5088 178.782C66.6492 179.649 65.1239 180 63.8779 180C61.3487 180 59.9539 178.535 59.1914 177.028C54.2259 167.268 65.4395 135.839 80.6894 123.581ZM91.0303 119.619C88.0733 119.619 84.7253 121.126 81.0244 124.098C74.1248 129.649 67.3364 139.905 62.873 151.522C58.6886 162.418 57.4245 172.303 59.6748 176.719C61.1812 179.67 64.0635 180.165 68.2851 178.184C84.13 170.775 91.4204 159.529 98.4687 148.634L99.0459 147.746C101.129 144.548 102.3 140.771 102.431 136.83C102.561 132.868 101.63 129.029 99.7334 125.728C97.8179 122.385 95.4563 120.383 92.7412 119.805C92.1834 119.681 91.6067 119.619 91.0303 119.619Z" fill="#848484"/>
<path d="M80.5901 134.716C83.3165 132.552 85.7569 131.669 87.8733 132.11C89.6084 132.468 91.1154 133.708 92.3166 135.809C94.6998 139.969 94.547 145.264 91.8967 149.318C87.6828 155.768 83.0868 160.685 73.3244 165.223C72.1426 165.769 71.1705 166 70.3889 166C68.9016 166 68.0809 165.181 67.6233 164.319C66.3077 161.756 67.1093 156.336 69.7024 150.18C72.41 143.793 76.4715 137.993 80.5901 134.716ZM86.7863 132.636C85.0513 132.636 83.1064 133.519 80.9328 135.241C76.9096 138.456 72.905 144.149 70.2356 150.452C67.7568 156.335 66.9376 161.651 68.1389 164.025C68.9398 165.601 70.6178 165.811 73.1154 164.655C82.7633 160.18 87.2821 155.327 91.4387 148.961C93.9556 145.116 94.1081 140.094 91.8391 136.165C90.7143 134.233 89.3608 133.078 87.7785 132.741C87.4544 132.678 87.1296 132.636 86.7863 132.636Z" fill="#848484"/>
<path opacity="0.2" d="M78.0069 154C78.2217 154 78.4862 153.938 78.8002 153.771C81.2463 152.482 82.3866 151.068 83.4444 149.217C84.1385 148.011 84.1881 146.409 83.5601 145.182C83.2295 144.538 82.8329 144.163 82.3536 144.038C81.7917 143.893 81.1306 144.163 80.4199 144.808C78.2548 146.784 76.4037 151.692 77.1805 153.418C77.2962 153.667 77.5276 154 78.0069 154Z" fill="#848484" stroke="#575757" stroke-width="5"/>
<path d="M261.944 270.423C256.565 270.155 251.336 269.393 246.71 268.157C240.616 266.53 235.501 264.079 231.514 260.907C226.624 257.014 223.408 251.988 221.922 245.932C219.853 237.425 216.581 229.392 212.462 222.677C207.629 214.788 201.704 208.711 194.821 204.592C182.164 196.991 166.761 196.27 149.063 202.45C127.623 209.927 110.941 217.775 98.7543 223.521C83.2008 230.834 74.6248 234.871 72.6688 230.442C72.4996 230.051 72.4808 229.639 72.6312 229.186C73.7408 225.828 82.9375 221.256 93.6011 215.983C101.538 212.048 110.546 207.579 117.637 202.841C125.837 197.362 130.143 192.398 130.802 187.681C131.723 181.048 134.168 176.393 137.854 174.23C142.048 171.779 147.784 172.418 154.931 176.125C168.058 182.923 200.106 191.038 219.571 191.038C226.285 191.038 231.514 190.07 233.94 187.743C235.407 186.342 235.821 184.509 235.162 182.284C232.999 174.931 235.501 167.33 240.974 164.632C247.838 161.253 255.418 166.156 261.944 174.004V172.974C259.386 169.966 256.79 167.618 254.176 165.929C249.38 162.819 244.603 162.16 240.748 164.075C235.012 166.897 232.379 174.807 234.636 182.469C235.219 184.447 234.861 186.033 233.582 187.269C229.539 191.141 216.468 191.471 197.698 188.155C181.487 185.291 164.015 180.121 155.194 175.548C147.878 171.758 141.973 171.141 137.629 173.674C133.773 175.919 131.234 180.739 130.275 187.578C128.846 197.815 109.192 207.579 93.3943 215.406C82.1852 220.967 73.3271 225.355 72.1422 228.959C71.9354 229.577 71.9542 230.154 72.1987 230.69C73.2518 233.079 75.8284 233.491 80.5866 232.028C84.9687 230.669 91.175 227.765 99.0176 224.078C111.186 218.351 127.868 210.503 149.27 203.026C166.817 196.909 182.07 197.609 194.595 205.107C201.385 209.185 207.253 215.2 212.03 222.986C216.111 229.66 219.364 237.631 221.414 246.056C222.919 252.235 226.21 257.385 231.213 261.36C235.256 264.573 240.447 267.045 246.616 268.714C251.299 269.97 256.584 270.753 262 271V270.423H261.944Z" fill="#848484"/>
<path d="M261.981 257.973C253.166 260.205 246.215 259.857 240.866 256.928C232.974 252.587 229.508 243.126 226.946 233.542C224.234 223.426 216.454 215.951 210.201 209.951C206 205.917 202.685 202.743 202.534 200.204C202.497 199.487 202.723 198.852 203.213 198.258C204.927 196.169 210.389 197.48 217.321 199.139C222.877 200.47 229.809 202.128 237.023 202.579C240.357 202.784 242.542 202.169 243.729 200.695C245.424 198.565 244.784 195.002 244.106 191.234C243.145 185.971 242.166 180.544 246.743 177.555C248.268 176.551 249.964 176.367 251.772 176.94C254.823 177.944 258.308 181.261 262 186.606V185.562C258.986 181.302 255.464 177.514 251.942 176.367C249.983 175.712 248.137 175.937 246.46 177.022C241.544 180.237 242.618 186.135 243.559 191.357C244.219 194.982 244.84 198.401 243.315 200.306C242.26 201.616 240.207 202.169 237.061 201.965C229.884 201.514 222.99 199.855 217.453 198.524C210.088 196.763 204.757 195.473 202.817 197.828C202.233 198.545 201.951 199.343 202.007 200.224C202.158 203.009 205.548 206.265 209.862 210.381C216.059 216.32 223.782 223.733 226.437 233.685C229.037 243.392 232.54 252.996 240.64 257.44C243.748 259.14 247.383 260 251.584 260C254.729 260 258.195 259.529 262 258.567V257.973H261.981Z" fill="#848484"/>
<path d="M262 242.103C257.585 243.361 252.198 244.082 247.821 242.247C244.604 240.906 242.265 238.308 240.881 234.554C238.973 229.357 235.625 224.531 232.931 220.654C230.275 216.838 227.993 213.538 228.704 212.053C229.153 211.125 230.78 210.775 233.679 210.96L234.652 211.022C243.332 211.6 247.709 211.888 249.86 209.723C250.907 208.671 251.413 207.021 251.469 204.402C251.562 200.793 253.302 197.782 255.808 196.895C257.679 196.235 259.793 196.75 262 198.318V197.555C259.157 195.657 256.949 195.843 255.64 196.317C252.909 197.287 251.001 200.525 250.907 204.402C250.851 206.835 250.402 208.341 249.486 209.269C247.503 211.27 242.957 210.96 234.689 210.403L233.717 210.342C230.518 210.135 228.778 210.589 228.199 211.765C227.319 213.6 229.471 216.714 232.463 221.045C235.138 224.902 238.468 229.687 240.339 234.802C241.779 238.72 244.229 241.422 247.597 242.845C249.579 243.67 251.749 244 253.919 244C256.781 244 259.624 243.443 261.981 242.783V242.103H262Z" fill="#848484"/>
<path d="M262 230.391C257.49 230.513 251.101 229.905 249.898 225.645C249.165 223.049 249.673 220.533 251.289 218.566C253.469 215.909 257.321 214.529 262 214.61V214.002C257.152 213.941 253.149 215.381 250.875 218.16C249.109 220.31 248.564 223.028 249.353 225.828C250.218 228.87 253.412 230.594 258.843 230.939C259.557 230.98 260.271 231 260.948 231C261.305 231 261.643 231 261.981 230.98V230.391H262Z" fill="#848484"/>
<path d="M20.7488 154.714C27.8854 157.919 34.701 161 39.3076 161C40.5537 161 41.6298 160.773 42.5172 160.276C43.7632 159.573 44.5562 158.312 44.896 156.554C45.7079 152.419 41.6865 148.428 35.5883 142.39C29.5468 136.414 21.2775 128.246 13.971 116.005C9.02452 107.713 4.34234 102.378 0.0188797 100V100.682C4.1913 103.06 8.70356 108.271 13.499 116.336C20.8621 128.66 29.1503 136.848 35.2107 142.845C41.1578 148.738 45.1037 152.625 44.3485 156.409C44.0276 158.002 43.3479 159.077 42.2529 159.697C38.3448 161.951 29.9055 158.146 20.9754 154.114C15.0849 151.467 8.98676 148.717 3.70043 147.477C2.37885 147.166 1.13278 146.96 0 146.856V147.477C1.09503 147.58 2.30333 147.766 3.58715 148.076C8.81684 149.338 14.8772 152.067 20.7488 154.714Z" fill="#848484"/>
<path d="M17.2276 144C19.1018 144 20.2911 143.482 20.7777 142.465C21.9671 139.914 18.381 135.05 10.0915 127.953C6.34323 124.764 2.4508 121.814 0 120V120.698C8.19935 126.738 22.1833 138.159 20.3092 142.186C19.9127 143.043 18.8315 143.422 17.3178 143.422C13.3352 143.422 6.27115 140.91 0 138.239V138.877C1.35154 139.455 2.77516 140.033 4.21681 140.591C10.0735 142.864 14.4345 144 17.2276 144Z" fill="#848484"/>
<path d="M102.083 186.53C105.611 181.923 110.913 179.519 116.252 180.08C119.392 180.421 120.981 181.623 121 183.686C121.037 190.516 101.879 204.778 93.2517 205.779C91.9959 205.94 91.0356 206 90.3152 206C88.7634 206 88.2461 205.7 88.0613 205.259C87.6918 204.338 89.0222 203.016 91.2391 200.813C93.6037 198.469 96.8361 195.263 98.9236 191.438C99.9212 189.615 100.974 187.973 102.083 186.53ZM114.756 180.621C110.1 180.621 105.63 182.905 102.545 186.911C101.455 188.313 100.42 189.956 99.4412 191.738C97.3167 195.644 94.0284 198.889 91.6453 201.253C90.057 202.835 88.3945 204.477 88.615 204.998C88.7443 205.319 89.6503 205.599 93.2342 205.179C97.1875 204.718 103.782 201.293 110.045 196.466C116.492 191.498 120.5 186.591 120.482 183.706C120.464 182.004 119.041 181.002 116.252 180.701C115.753 180.641 115.254 180.621 114.756 180.621Z" fill="#848484"/>
<path d="M19.3087 82.0488C23.5251 90.5264 28.0413 99.2496 32.4452 105.618C37.2987 112.601 41.5152 116 45.3568 116C45.3943 116 45.4318 116 45.4692 116C49.2921 115.939 52.6653 112.58 55.776 105.782C62.3162 91.5093 70.0557 82.786 78.17 80.5949C83.7169 79.1001 89.4138 80.5744 95.0919 85.018C99.4582 88.4377 102.569 89.5639 104.555 88.4786C107.498 86.8814 107.666 80.9225 107.854 74.0422C108.06 66.4861 108.285 57.9062 112.426 53.9745C114.356 52.1521 116.942 51.4763 120.334 51.8859C129.217 52.9916 137.668 51.5173 144.771 47.6676C151.517 44.0021 156.745 38.4119 159.875 31.4906C162.855 24.9174 163.717 17.5046 162.405 10.0919C161.861 6.99982 160.943 3.9692 159.688 1H159.05C163.435 11.1157 163.679 21.7639 159.388 31.2244C156.314 38.0228 151.18 43.5107 144.546 47.1147C137.537 50.9234 129.179 52.3568 120.409 51.2715C116.905 50.8415 114.094 51.5787 112.07 53.5036C107.741 57.599 107.516 66.3223 107.291 74.0012C107.123 80.4106 106.954 86.4719 104.312 87.9053C102.513 88.8882 99.6081 87.7619 95.4104 84.4856C89.5824 79.9396 83.7356 78.4243 78.02 79.9601C69.7371 82.2126 61.8664 91.0383 55.2701 105.475C52.253 112.048 49.0485 115.283 45.4692 115.345C45.4318 115.345 45.3943 115.345 45.3568 115.345C37.205 115.345 28.2662 98.7377 19.7959 81.7007C14.605 71.2573 8.28973 64.0903 1 60.2815V60.9573C8.10233 64.807 14.2489 71.8511 19.3087 82.0488Z" fill="#848484"/>
<path d="M26.1884 56C29.4115 56 32.2433 55.4854 34.5721 54.4356C39.8818 52.0479 42.5273 47.1695 42.4342 39.8829C42.341 32.7403 44.0737 27.4296 47.7252 23.6628C56.7238 14.3177 76.0995 15.9233 96.6302 17.6523C99.6484 17.8993 102.778 18.1669 105.852 18.3933C108.852 18.6198 111.609 18.7227 114.143 18.7227C125.712 18.7227 132.27 16.4379 133.705 11.8888C134.711 8.67777 133.034 4.78743 130.351 1H129.625C132.382 4.76684 134.133 8.61602 133.183 11.7036C131.544 16.9319 122.378 18.9903 105.908 17.7964C102.834 17.57 99.7043 17.3024 96.6861 17.0554C76.0436 15.3263 56.5375 13.7002 47.3526 23.2305C43.5893 27.1415 41.8007 32.5962 41.8939 39.924C41.9871 46.9225 39.4533 51.6362 34.3858 53.9004C27.8651 56.8234 17.2644 55.4854 5.26638 50.2365C3.83183 49.619 2.41592 48.9397 1 48.2399V48.9192C2.34139 49.5984 3.70142 50.2365 5.06144 50.8129C12.9049 54.2298 20.208 56 26.1884 56Z" fill="#848484"/>
<path d="M15.5462 35.9594C22.2512 35.5122 27.9318 31.6707 32.4577 24.5366L33.2027 23.3577C38.6971 14.6992 41.4536 10.3496 45.5325 8.54065C49.6114 6.73171 55.1431 7.38211 66.1691 8.70325C67.5101 8.86585 68.9443 9.02846 70.4529 9.21138C83.5091 10.7561 92.9706 11.2642 99.3776 10.7764C105.543 10.3089 109.044 8.94715 110.385 6.4878C111.205 4.98374 111.167 3.15447 110.497 1H109.919C110.59 3.07317 110.664 4.80081 109.901 6.18293C108.672 8.43902 105.226 9.73984 99.3404 10.187C92.9706 10.6545 83.5463 10.1463 70.5088 8.60163C69.0001 8.4187 67.566 8.2561 66.225 8.0935C55.1058 6.75203 49.5369 6.0813 45.309 7.97154C41.0811 9.86179 38.2874 14.252 32.7371 23.0122L31.9921 24.1911C27.5593 31.1626 22.0277 34.9228 15.5089 35.3496C12.1564 35.5732 7.29527 34.9431 1 31.7317V32.4024C6.53165 35.187 10.9644 36 14.261 36C14.708 36 15.1364 35.9797 15.5462 35.9594Z" fill="#848484"/>
<path d="M22.8757 22.4568C25.6246 21.0404 27.5085 18.6305 28.4504 15.2904C29.8537 10.4283 30.1613 5.5239 29.9306 1H29.3539C29.5846 5.46048 29.277 10.3015 27.8929 15.1002C26.9894 18.2711 25.2017 20.5542 22.6065 21.886C16.4359 25.0781 6.82425 22.4568 0 19.8778V20.5542C4.59435 22.2877 10.3998 24 15.6285 24C18.2621 23.9789 20.7611 23.5561 22.8757 22.4568Z" fill="#848484"/>
<path d="M137.84 16.0704C134.133 24.0548 117.813 22.9725 117.626 22.9521C108.479 22.9521 99.9834 22.2374 92.494 21.5839C81.3531 20.6241 71.7213 19.8073 64.6046 21.829C60.8412 22.8908 57.9163 24.7082 55.6807 27.3629C53.2587 30.2218 51.6193 34.0813 50.6505 39.1252C47.4275 55.9925 38.988 58.0142 32.1879 59.6274C28.0893 60.6076 24.5495 61.4448 23.3758 65.4472C22.3139 69.1025 23.5435 76.3722 26.543 83.9687C29.7474 92.1165 34.1069 98.4264 38.2055 100.836C39.5283 101.612 40.851 102 42.0992 102C44.4839 102 46.7382 100.611 48.713 97.8955C51.7124 93.7705 54.153 89.278 56.519 84.9284C60.9344 76.8011 64.735 69.7968 70.6408 68.2244C74.2737 67.2647 78.5027 68.4491 83.5329 71.9001C90.2025 76.4539 94.8228 77.8833 97.6732 76.2701C101.213 74.2689 101.567 68.0815 101.94 61.5061C102.443 52.6844 102.964 43.5564 111.236 43.9648C113.136 44.0465 114.962 44.1078 116.732 44.1078C134.617 44.1078 146.224 39.4723 151.235 30.2831C155.185 23.0746 154.179 14.3755 152.651 8.37182C151.924 5.49252 151.012 2.96037 150.211 1H149.596C150.415 2.96037 151.366 5.59462 152.111 8.5556C154.812 19.2355 152.856 26.0968 150.751 29.9767C145.348 39.8603 132.046 44.3732 111.255 43.3726C107.286 43.1888 104.641 45.0267 103.169 49.0087C101.884 52.4598 101.623 57.0544 101.381 61.5061C101.027 67.8977 100.673 73.9218 97.4124 75.7596C94.7483 77.2707 90.3143 75.8413 83.8123 71.41C78.6331 67.8773 74.2737 66.652 70.4917 67.6731C64.3624 69.3067 60.4873 76.4131 56.016 84.663C53.6686 88.9921 51.228 93.4642 48.2472 97.5483C45.3409 101.53 42.0433 102.449 38.4291 100.326C34.4422 97.9772 30.1573 91.7897 27.0087 83.7645C24.1211 76.4131 22.8542 69.1434 23.8602 65.6719C24.9408 61.9962 28.1638 61.2202 32.2625 60.2604C35.6904 59.4436 39.5655 58.5247 43.0307 55.625C47.0362 52.276 49.7004 46.9258 51.1535 39.2681C52.9607 29.7725 57.1338 24.5857 64.6977 22.4416C67.8648 21.5431 71.5723 21.2163 75.6895 21.2163C80.6825 21.2163 86.3274 21.7064 92.4009 22.2169C99.9089 22.85 108.404 23.5851 117.552 23.5851C117.552 23.5851 117.552 23.5851 117.57 23.5851C117.608 23.5851 121.818 23.8914 126.42 23.1563C132.679 22.1761 136.666 19.889 138.306 16.3767C140.076 12.558 138.939 7.41205 134.915 1.02042H134.244C138.343 7.35079 139.535 12.3947 137.84 16.0704Z" fill="#848484"/>
<path d="M139.048 23.8755C135.989 28.1309 126.738 29.8953 112.321 28.9819C101.372 28.2969 91.2262 26.2834 91.1329 26.2626C91.0769 26.2419 84.8848 25.0171 77.9093 26.5325C73.7874 27.4043 70.2063 29.0442 67.2408 31.4107C63.5292 34.3583 60.7875 38.4269 59.1089 43.4919C55.8636 53.3105 52.2267 60.0153 47.9742 64.0009C44.2813 67.4675 40.6816 68.3809 37.3244 69.0244C32.4192 69.9585 30.7592 73.4458 30.237 76.2067C29.1925 81.6038 31.7104 88.8899 35.6272 91.8168C36.6903 92.6056 37.772 93 38.8165 93C39.7864 93 40.7376 92.6679 41.6328 91.9828C45.3071 89.2013 49.0746 83.8457 53.066 78.1995C60.657 67.426 68.5091 56.2996 76.3985 61.8836C77.5549 62.6931 78.6739 63.5027 79.7371 64.2915C85.5189 68.5054 90.1071 71.8475 92.998 70.2699C94.7139 69.3357 95.6838 66.8655 96.0381 62.4648C96.7655 53.3727 98.1084 46.5226 102.305 42.6616C105.289 39.9007 109.542 38.8836 115.323 39.5063C131.513 41.2708 142.181 38.074 147.049 30.0406C150.947 23.6056 150.276 15.2401 149.026 9.34477C148.317 6.00271 147.347 3.05505 146.583 1H145.986C146.751 3.0343 147.758 6.04422 148.485 9.49007C149.697 15.2608 150.35 23.4395 146.583 29.6877C141.845 37.5135 131.345 40.6065 115.379 38.8836C109.448 38.2401 105.065 39.3195 101.951 42.1841C97.6235 46.1904 96.2247 53.1652 95.4786 62.4233C95.1429 66.5334 94.2663 68.9206 92.7555 69.7301C90.1444 71.1417 85.6868 67.9034 80.0541 63.7933C78.9724 63.0045 77.8533 62.1949 76.6969 61.3854C72.9481 58.7283 68.9008 59.3926 64.3312 63.4197C60.3399 66.907 56.4232 72.4702 52.637 77.8466C48.6829 83.472 44.9341 88.7653 41.3344 91.5054C39.2268 93.1038 37.2498 92.2942 35.9442 91.3186C32.1954 88.5162 29.7894 81.5208 30.7779 76.352C31.2815 73.778 32.8295 70.519 37.4177 69.6471C40.8495 68.9829 44.5237 68.0487 48.3286 64.4783C52.6556 60.4097 56.3486 53.6218 59.6312 43.6995C61.2725 38.7383 63.9396 34.7735 67.5392 31.9088C70.4302 29.6047 73.9552 28.0063 77.9839 27.1345C80.595 26.574 83.0943 26.3872 85.2018 26.3872C88.6336 26.3872 90.9837 26.8646 91.021 26.8646C91.1142 26.8854 101.298 28.8989 112.283 29.5839C127.092 30.5181 136.25 28.7329 139.477 24.2491C142.666 19.8276 143.412 13.8908 141.621 7.01986C141.006 4.67419 140.204 2.59838 139.495 1H138.861C139.589 2.57762 140.446 4.73646 141.081 7.18592C142.293 11.8565 142.927 18.4991 139.048 23.8755Z" fill="#848484"/>
<path d="M79.9295 31.9992C81.9272 30.9328 84.1492 30.7072 86.2029 31.384C88.2007 32.0403 89.7135 33.4151 90.6844 35.466C93.5967 41.6395 91.0197 52.4891 89.2273 58.3957C88.7606 59.9541 88.1821 60.7745 87.4168 60.9592C87.3049 60.9797 87.1927 61.0001 87.0808 61.0002C85.8299 61.0002 84.3917 59.3802 82.5994 57.3703C80.9003 55.4629 78.9771 53.3089 76.6619 51.7912C72.797 49.248 70.8926 46.397 71.0047 43.2795C71.2103 37.8446 77.689 33.2093 79.9295 31.9992ZM83.7947 31.6301C82.5624 31.6301 81.3293 31.9376 80.1717 32.5529C78.0057 33.7221 71.7512 38.1728 71.5642 43.3C71.4522 46.1714 73.2825 48.8584 76.9607 51.258C79.3319 52.7962 81.3675 55.0938 83.0105 56.9397C84.7655 58.9084 86.2776 60.6106 87.3045 60.3645C87.8459 60.2209 88.3128 59.5236 88.7049 58.2111C92.8125 44.634 91.3931 38.3169 90.1795 35.7736C89.2833 33.8868 87.8834 32.6145 86.0349 31.9992C85.3069 31.7532 84.5601 31.6301 83.7947 31.6301Z" fill="#848484"/>
<path d="M81.4999 42.3437C82.0753 41.9822 82.7168 41.8969 83.3085 42.1309C83.9 42.3649 84.3436 42.8328 84.623 43.5557C85.4449 45.5975 84.7382 49.1072 84.2451 51.0215C84.1629 51.3831 83.9983 51.8722 83.6367 51.9785C83.5874 51.9998 83.5541 52 83.5048 52C83.0941 51.9996 82.6995 51.4682 82.1738 50.7666C81.73 50.1711 81.2204 49.4904 80.6122 49.0225C79.511 48.1717 78.9681 47.1931 79.0009 46.1084C79.0666 43.9416 81.4775 42.3689 81.4999 42.3437ZM82.6337 42.6416C82.3216 42.6417 82.0261 42.7267 81.7304 42.918C81.2866 43.2157 79.5603 44.5979 79.5107 46.1504C79.4778 46.9585 79.9383 47.7457 80.8749 48.4687C81.5323 48.9791 82.0913 49.7239 82.5351 50.3193C82.8966 50.7871 83.3571 51.4041 83.538 51.3408C83.5873 51.3408 83.6865 51.1702 83.7851 50.8086C84.1468 49.3407 84.9515 45.7249 84.2119 43.832C83.9818 43.2794 83.6532 42.9182 83.1933 42.748C83.0125 42.6842 82.8145 42.6416 82.6337 42.6416Z" fill="#848484"/>
<path d="M262 48.1191C251.65 40.1101 239.184 33.4427 229.302 37.1829C222.152 39.8865 217.193 47.7736 214.591 60.6206C213.393 66.5562 210.398 70.2964 205.701 71.7397C196.904 74.4636 182.829 68.2027 173.003 57.1649C165.123 48.3427 161.96 38.6465 164.318 30.5765C166.508 23.096 167.126 14.965 166.171 6.44777C165.965 4.63862 165.685 2.82947 165.348 1H164.767C165.123 2.87013 165.404 4.6996 165.61 6.52908C166.564 14.965 165.947 23.0147 163.794 30.4139C161.361 38.7075 164.58 48.607 172.61 57.6121C177.289 62.8566 183.166 67.2676 189.174 70.0322C193.441 72.004 197.559 73 201.19 73C202.874 73 204.447 72.7764 205.869 72.3495C210.698 70.8656 213.917 66.8611 215.152 60.7628C217.717 48.1395 222.527 40.415 229.489 37.7724C239.259 34.0728 251.706 40.8622 262 48.8916V48.1191V48.1191Z" fill="#848484"/>
<path d="M262 32.4951C254.391 25.3575 242.456 19.0381 232.758 21.1855C226.735 22.5148 222.147 26.9118 219.145 34.213C214.986 44.3159 209.708 51.3921 203.442 55.2779C196.728 59.4295 190.761 58.7341 186.938 57.4252C182.313 55.83 178.322 52.476 175.692 47.9767C172.97 43.3343 171.963 37.8533 172.876 32.5564C174.76 21.5536 175.487 10.9598 175.021 1H174.462C174.909 10.8984 174.2 21.4718 172.336 32.4337C171.403 37.8942 172.429 43.5183 175.226 48.2835C177.93 52.9055 182.033 56.3413 186.789 57.9774C188.784 58.6728 190.835 59 192.887 59C196.561 59 200.272 57.9161 203.722 55.7891C210.1 51.842 215.452 44.6636 219.667 34.4379C222.595 27.3209 227.033 23.067 232.87 21.7581C237.607 20.7151 243.295 21.6559 249.319 24.519C253.832 26.6664 258.382 29.8159 262 33.2927V32.4951V32.4951Z" fill="#848484"/>
<path d="M139.791 281.615C139.315 281.132 138.711 280.939 138.016 281.016C135.655 281.287 132.434 284.855 130 288H130.714C133.038 285.029 136.003 281.846 138.071 281.595C138.601 281.537 139.041 281.672 139.407 282.039C140.669 283.293 142.078 285.589 143.359 288H144C142.664 285.454 141.145 282.984 139.791 281.615Z" fill="#848484"/>
<path d="M262 20.7089C260.461 20.8545 258.753 20.8545 256.932 20.6674C250.532 20.0021 242.8 17.2578 235.705 13.0998C227.484 8.27651 220.615 15.4699 212.676 23.7859C206.632 30.1268 199.782 37.2994 191.298 39.8981C188.314 40.8129 186.005 40.3347 184.41 38.526C178.986 32.3098 182.608 11.9563 185.086 1H184.504C183.753 4.34719 182.89 8.52599 182.214 12.8919C180.131 26.4678 180.731 35.2412 183.997 38.9834C185.179 40.3347 186.7 41 188.539 41C189.44 41 190.397 40.8337 191.448 40.5218C200.044 37.9023 206.97 30.6674 213.051 24.264C220.84 16.1143 227.559 9.06653 235.423 13.6819C242.668 17.9439 250.288 20.6466 256.857 21.3118C258.697 21.499 260.423 21.5198 261.981 21.3742V20.7089H262Z" fill="#848484"/>
<path d="M192.969 27.9387C193.27 27.9796 193.553 28 193.854 28C198.868 28 204.466 22.0318 207.463 18.3119C211.441 13.4065 215.305 7.02952 218 1H217.378C214.72 6.88645 210.932 13.0999 207.049 17.9031C201.696 24.5254 196.72 27.8774 193.044 27.3255C191.517 27.1007 190.518 26.3444 189.99 25.0568C188.011 20.1514 193.364 8.7464 197.568 1.02044H196.908C196.079 2.57381 195.193 4.24981 194.345 5.98713C189.727 15.4095 188.087 21.9092 189.482 25.302C190.066 26.7941 191.253 27.6934 192.969 27.9387Z" fill="#848484"/>
<path d="M199.709 14.9788C199.825 15 199.961 15 200.097 15C201.261 15 203.104 14.2364 205.665 11.0333C207.566 8.67879 209.39 5.47576 210.457 2.67576C210.631 2.20909 210.825 1.63636 211 1.02121H210.399C210.263 1.46667 210.108 1.93333 209.933 2.42121C207.741 8.19091 202.735 14.7879 199.806 14.3212C199.263 14.2364 198.913 13.9818 198.719 13.5152C197.73 11.0545 201.746 3.77879 203.473 1H202.774C201.533 3.05758 197.012 10.8 198.196 13.7697C198.448 14.4485 198.952 14.8515 199.709 14.9788Z" fill="#848484"/>
<path d="M261.982 12.5761C259.511 14.1224 256.644 14.6866 253.434 14.206C249.845 13.6836 245.824 11.9284 241.46 8.98209C237.654 6.41194 234.246 3.36119 231.83 1H231C233.471 3.44478 237.095 6.76716 241.189 9.52537C245.625 12.5134 249.719 14.3104 253.38 14.8328C254.137 14.9373 254.877 15 255.616 15C257.96 15 260.088 14.4358 262 13.2866V12.5761H261.982Z" fill="#848484"/>
<path d="M141.4 184.79C144.981 182.464 151.188 182.401 159.849 184.624C166.035 186.223 171.321 188.466 171.773 188.654C177.341 189.797 178.036 190.815 177.999 191.563C177.961 192.58 176.461 193.972 165.137 195.842C158.106 197.005 149.724 197.961 143.612 198.647L142.094 198.814C140.987 198.938 139.993 199 139.094 199C135.663 199 133.657 198.086 133.132 196.3C132.175 193.08 136.582 187.927 141.4 184.79ZM148.937 183.627C146.144 183.627 143.556 184.104 141.662 185.33C139.281 186.888 137.05 188.903 135.531 190.877C133.937 192.975 133.263 194.824 133.637 196.112C134.219 198.024 137.106 198.75 142 198.189L143.537 198.044C149.649 197.338 158.012 196.404 165.024 195.24C176.142 193.391 177.379 192.041 177.398 191.542C177.417 191.293 177.023 190.379 171.605 189.257L171.549 189.236C171.492 189.216 166.074 186.868 159.699 185.227C156.418 184.375 152.5 183.627 148.937 183.627Z" fill="#848484"/>
<path d="M152.284 48.7891C155.121 47.4231 158.484 47.8524 160.855 49.9014C162.72 51.521 164.741 53.824 163.731 55.7363C162.953 57.2194 160.485 58 157.201 58C155.006 58 152.44 57.6487 149.759 56.9268C147.33 56.2828 146.105 55.4043 146.008 54.2725C145.853 52.7115 147.971 50.8768 152.284 48.7891ZM155.705 48.5947C154.617 48.5947 153.528 48.8286 152.518 49.3164C148.574 51.2285 146.455 52.965 146.571 54.2139C146.649 55.053 147.796 55.7944 149.895 56.3603C156.094 58.0385 162.06 57.6289 163.206 55.4629C163.866 54.2335 162.914 52.4578 160.466 50.3506C159.106 49.1993 157.415 48.5948 155.705 48.5947Z" fill="#848484"/>
<path d="M205.295 281.664C195.489 280.315 189.729 271.281 182.464 259.835C180.431 256.646 178.323 253.335 175.951 249.901C170.003 241.296 163.34 236.125 156.169 234.531C148.019 232.732 139.059 235.512 129.554 242.788C119.108 250.78 103.994 263.636 91.025 275.573C87.3923 278.925 82.6491 283.381 78 288H78.8282C82.5173 284.362 86.7147 280.356 91.3826 276.043C104.332 264.127 119.428 251.27 129.855 243.299C147.567 229.748 162.926 232.098 175.481 250.289C177.833 253.703 179.941 257.014 181.974 260.202C189.334 271.771 195.15 280.887 205.201 282.277C212.334 283.258 216.419 285.179 217.398 288H218C217.078 284.832 212.805 282.706 205.295 281.664Z" fill="#848484"/>
<path d="M152.137 258.129C148.6 256.445 144.97 256.648 141.339 258.718C132.338 263.831 124.179 269.879 117.087 276.717C112.726 280.918 109.433 284.773 107 288H107.749C113.288 280.756 123.992 269.25 141.582 259.245C145.063 257.277 148.525 257.074 151.894 258.677C158.687 261.904 164.001 271.847 167.257 279.639C168.511 282.602 169.559 285.504 170.401 288H171C170.139 285.443 169.073 282.46 167.781 279.396C162.991 267.931 157.713 260.767 152.137 258.129Z" fill="#848484"/>
<path opacity="0.459984" d="M228.075 161.796C228.616 161.939 229.118 162 229.601 162C232.19 162 234.006 160.065 234.682 157.987C235.494 155.44 234.856 152.018 231.533 150.551C226.162 148.167 222.394 147.454 220.307 148.412C219.361 148.839 218.916 149.858 219.013 151.284C219.148 153.097 220.172 155.359 221.757 157.355C223.534 159.596 225.775 161.165 228.075 161.796Z" fill="#848484" stroke="#575757" stroke-width="5"/>
<path d="M64.7587 211.027C67.6991 209.233 71.6722 210.057 73.2421 211.46C73.9175 212.058 74.1564 212.76 73.8983 213.42C73.3817 214.823 71.3943 216.267 68.0165 217.69C67.5198 217.897 67.0232 218 66.5663 218C65.096 218 63.9439 217.01 63.3876 215.854C62.6922 214.369 62.8115 212.224 64.7587 211.027ZM68.6132 210.635C67.4012 210.635 66.1493 210.903 65.0565 211.563C63.4273 212.554 63.3079 214.286 63.9237 215.565C64.5396 216.844 66.0098 217.876 67.7977 217.113C70.9766 215.772 72.9041 214.41 73.3612 213.193C73.5599 212.678 73.2023 212.223 72.8446 211.935C72.01 211.192 70.3613 210.635 68.6132 210.635Z" fill="#848484"/>
<path d="M79.9484 267.109C83.7203 264.741 92.7921 264.359 94.6027 266.005C94.9799 266.326 95.0927 266.748 94.923 267.189C94.1868 269.177 86.2097 273.512 83.5695 274.656C83.0038 274.917 82.4754 275.017 81.9474 274.997C80.3257 274.997 79.0619 273.893 78.4396 272.568C77.6478 270.882 77.799 268.454 79.9484 267.109ZM94.2257 266.467C92.6038 265.001 83.6829 265.463 80.2316 267.631C78.3834 268.795 78.2516 270.822 78.9493 272.307C79.6472 273.793 81.3259 274.998 83.3439 274.095C86.6818 272.629 93.7906 268.535 94.3761 266.969C94.4327 266.828 94.4518 266.667 94.2257 266.467Z" fill="#848484"/>
<path d="M15.8917 14.3213C19.0505 12.169 17.9976 5.3241 16.9641 1H16.3596C16.6326 2.08587 16.8861 3.34626 17.1006 4.66482C17.6076 8.01939 17.7636 12.3435 15.5602 13.856C12.9863 15.6011 7.76059 13.313 0 7.04986V7.80609C5.98619 12.5956 10.5294 15 13.5713 15C14.4682 14.9806 15.2482 14.7673 15.8917 14.3213Z" fill="#848484"/>
<path d="M118.78 142.647C121.135 141.578 124.844 141.831 129.794 143.424C133.443 144.608 136.463 146.102 136.506 146.124C138.063 146.94 138.119 147.717 137.915 148.222C137.303 149.679 133.447 150.534 130.054 150.845C128.997 150.942 127.811 151 126.587 151C123.862 151 120.95 150.709 118.873 149.873C115.907 148.688 115.758 146.921 116.166 145.639C116.593 144.26 117.464 143.249 118.78 142.647ZM122.248 142.589C121.043 142.589 119.93 142.744 119.003 143.171C117.835 143.696 117.057 144.59 116.686 145.814C116.222 147.329 117.02 148.513 119.096 149.329C121.543 150.301 125.734 150.65 130.017 150.262C133.966 149.893 137.006 148.961 137.414 147.989C137.618 147.484 136.895 146.979 136.265 146.649C136.071 146.548 128.03 142.589 122.248 142.589Z" fill="#848484"/>
<path d="M228.428 268.59C218.535 266.641 217.355 259.353 215.856 250.115C214.17 239.801 212.09 226.969 196.952 216.737C189.363 211.62 182.094 208.412 174.712 206.93C168.117 205.611 161.559 205.692 154.702 207.194C141.962 209.996 129.933 217.468 118.28 224.675C107.375 231.436 96.0963 238.44 83.9555 241.892C77.4354 243.76 71.2151 244.45 64.9385 244.044C57.8939 243.577 50.9616 241.73 43.767 238.38C31.1952 232.532 18.6984 230.502 6.6325 232.329C4.40293 232.674 2.1921 233.141 0 233.75V234.38C2.22957 233.771 4.45914 233.284 6.72618 232.938C18.6984 231.111 31.0828 233.141 43.5609 238.928C52.423 243.049 60.6293 244.755 68.3672 244.755C87.0469 244.755 102.991 234.867 118.561 225.223C130.701 217.691 142.149 210.585 154.815 207.803C161.597 206.301 168.08 206.22 174.6 207.539C181.925 209.001 189.139 212.189 196.652 217.264C203.303 221.751 211.584 227.335 215.313 250.216C216.081 254.987 216.755 259.109 218.535 262.418C220.503 266.093 223.631 268.245 228.334 269.179C242.255 271.94 250.536 276.305 254.377 282.924C255.295 284.488 255.97 286.193 256.419 288H257C256.532 286.071 255.838 284.285 254.845 282.599C250.911 275.839 242.517 271.372 228.428 268.59Z" fill="#848484"/>
<path d="M217.555 275.324C205.77 273.427 204.665 269.612 202.267 261.296C200.169 254.05 197.002 243.069 184.618 227.144C167.963 205.708 150.295 219.11 129.836 234.632C109.096 250.376 85.5831 268.199 56.8806 255.362C45.8829 250.437 34.7916 248.014 23.8876 248.115C15.7752 248.196 7.7377 249.69 0 252.556V253.202C7.7377 250.316 15.7564 248.822 23.8876 248.741C34.7166 248.62 45.733 251.062 56.6557 255.947C69.5831 261.74 82.6417 261.841 96.5433 256.29C108.703 251.426 119.607 243.15 130.155 235.157C140.272 227.487 149.827 220.241 158.763 217.657C168.637 214.791 176.712 217.94 184.187 227.568C196.496 243.412 199.644 254.312 201.724 261.518C204.122 269.834 205.34 274.012 217.48 275.97C224.581 277.121 229.021 279.946 230.689 284.367C231.101 285.477 231.344 286.688 231.438 288H232C231.925 286.607 231.663 285.315 231.213 284.145C229.452 279.462 224.862 276.515 217.555 275.324Z" fill="#848484"/>
<path d="M158.441 247.724C153.243 243.965 146.269 244.087 137.724 248.151C130.937 251.361 123.14 257.051 114.539 265.017C105.752 273.186 97.8987 282.127 93 288H93.7479C98.6466 282.127 106.313 273.43 114.895 265.464C123.458 257.519 131.199 251.87 137.93 248.679C146.287 244.717 153.075 244.554 158.104 248.212C169.79 256.686 175.998 270.991 181.476 283.611C182.13 285.094 182.747 286.557 183.383 287.98H184C183.327 286.476 182.654 284.932 181.981 283.347C176.502 270.666 170.257 256.279 158.441 247.724Z" fill="#848484"/>
<path d="M144.532 269.365C142.137 267.505 139.041 267.546 135.337 269.486C132.425 271.022 129.126 273.731 125.532 277.551C122.105 281.209 119.027 285.191 117 288H117.719C123.468 280.138 136.645 263.989 144.201 269.85C149.084 273.65 151.941 281.189 154.41 288H155C152.494 281.067 149.6 273.306 144.532 269.365Z" fill="#848484"/>
<path d="M51.7985 269.11C47.0048 267.797 42.0432 266.443 37.5852 264.831C26.5241 260.79 13.7097 264.194 4.90566 267.757C3.17096 268.454 1.52952 269.19 0 269.927V270.583C1.58548 269.827 3.30153 269.051 5.11084 268.314C13.8216 264.791 26.5055 261.427 37.3986 265.408C41.8566 267.04 46.8369 268.394 51.6493 269.708C62.4679 272.653 72.6895 275.44 73.3983 280.496C73.6968 282.626 72.3165 285.114 69.2201 288H70.0408C72.9693 285.114 74.2564 282.606 73.9579 280.396C73.1745 274.943 63.2699 272.235 51.7985 269.11Z" fill="#848484"/>
<path d="M45.3179 277.496C41.5761 276.796 37.0216 276.837 32.8262 277.62C25.059 279.061 9.86487 283.675 0 286.785V287.423C9.86487 284.313 25.1535 279.679 32.9396 278.217C37.0783 277.455 41.5572 277.393 45.2423 278.093C50.5716 279.103 52.4426 281.224 53.0851 282.851C53.6709 284.313 53.5198 286.043 52.6504 288H53.293C54.1245 285.982 54.219 284.169 53.5953 282.604C52.3292 279.432 48.3983 278.073 45.3179 277.496Z" fill="#848484"/>
<path d="M22.9517 164.061C31.3928 170.262 36.9019 179.156 41.7388 187.009C47.2292 195.902 51.9914 203.593 59.4241 204.837C60.115 204.959 60.8247 205 61.5343 205C67.2676 205 74.084 201.39 82.7306 193.781C89.2108 188.07 94.6079 182.888 99.37 178.299C109.417 168.61 116.682 161.613 124.712 159.349C132.91 157.024 141.912 159.471 155.769 167.773C167.086 174.566 180.588 179.237 192.783 180.583C198.46 181.216 203.614 181.093 207.704 180.196C212.018 179.258 215.043 177.565 216.668 175.137C218.89 171.812 219.432 165.632 209.329 155.045C197.246 142.378 183.501 140.848 168.953 139.237C159.317 138.176 149.345 137.054 139.279 132.628C127.887 127.63 118.008 118.94 109.062 106.11C102.451 96.6249 94.7386 92.1374 86.727 93.1369C81.2739 93.81 75.9141 96.9513 70.7972 102.438C65.6615 107.987 61.0301 115.636 57.071 125.182C54.1203 132.26 50.8709 135.891 47.0798 136.258C38.8815 137.054 29.3946 122 20.2438 107.436C15.6684 100.154 10.9436 92.6473 6.4429 87.2622C4.10851 84.4269 1.97956 82.3667 0 81V81.7547C6.2935 86.2831 13.1286 97.1349 19.7956 107.742C24.3896 115.044 29.1518 122.612 33.7272 128.12C38.62 133.994 42.8033 136.87 46.4822 136.87C46.7063 136.87 46.9304 136.85 47.1545 136.83C51.151 136.442 54.5685 132.709 57.5939 125.407C61.5343 115.922 66.1097 108.333 71.208 102.846C76.2316 97.4409 81.4793 94.3608 86.8017 93.708C94.5892 92.7493 102.153 97.1553 108.633 106.457C117.634 119.389 127.607 128.12 139.073 133.158C149.214 137.625 159.224 138.727 168.897 139.808C183.352 141.419 197.003 142.929 208.955 155.453C218.778 165.754 218.33 171.629 216.239 174.75C213.176 179.298 204.436 181.236 192.857 179.951C180.737 178.605 167.31 173.954 156.049 167.202C142.061 158.819 132.948 156.371 124.581 158.737C116.42 161.042 109.118 168.079 99.0152 177.83C94.2531 182.419 88.8747 187.6 82.3944 193.291C72.7954 201.736 65.5308 205.204 59.5174 204.204C52.3275 203.021 47.6401 195.433 42.2057 186.642C37.3315 178.748 31.8036 169.813 23.2691 163.531C16.1913 158.329 9.44958 155.718 3.15609 155.718C2.09161 155.718 1.0458 155.8 0 155.943V156.555C7.07785 155.555 14.772 158.044 22.9517 164.061Z" fill="#848484"/>
<path d="M10.5254 224.734C19.2121 224.878 28.9307 226.788 37.5049 228.452C49.7938 230.855 59.4749 232.745 60.6757 228.39C62.4768 221.859 56.6231 216.456 46.9045 207.521C39.9439 201.113 31.2572 193.143 21.9701 181.682C14.9907 173.096 8.03005 169.193 1.31333 170.138C0.900567 170.2 0.469045 170.282 0 170.385V171.022C0.450283 170.919 0.919329 170.816 1.38837 170.754C7.91748 169.851 14.6905 173.671 21.5573 182.113C30.8819 193.616 39.5687 201.606 46.5481 208.035C56.0791 216.806 61.8389 222.105 60.1504 228.247C59.0997 232.067 49.1372 230.116 37.6174 227.877C25.1784 225.433 10.5629 222.577 0 225.063V225.7C3.00189 224.981 6.49159 224.673 10.5254 224.734Z" fill="#848484"/>
<path d="M35.6725 222C40.6033 222 43.3722 221.023 43.9032 219.047C45.079 214.743 35.2742 206.986 29.3004 202.744C20.8611 196.734 10.8099 191.078 5.40493 189.269C3.60328 188.665 1.78268 188.25 0 188V188.624C1.72578 188.873 3.4895 189.289 5.23424 189.872C10.6012 191.66 20.5956 197.275 28.978 203.264C38.7448 210.23 44.1118 216.053 43.3342 218.86C42.5756 221.605 35.8242 222.104 24.3127 220.274C15.001 218.818 5.27217 216.261 0.0189647 214.639V215.283C5.32907 216.926 15.001 219.442 24.2558 220.919C28.8642 221.646 32.6761 222 35.6725 222Z" fill="#848484"/>
<path d="M11.1797 210C13.442 210 14.7051 209.52 14.9502 208.56C15.4781 206.641 11.7075 203.449 8.44602 201.112C5.63696 199.088 2.432 197.168 0 196V196.689C2.37544 197.857 5.44844 199.714 8.14437 201.654C12.3297 204.659 14.724 207.246 14.4035 208.393C13.8945 210.25 6.33451 209.207 0 207.642V208.268C1.90412 208.727 4.03448 209.186 6.10828 209.52C8.18208 209.833 9.85997 210 11.1797 210Z" fill="#848484"/>
<path d="M88.1807 105.238C90.8437 104.646 93.2833 105.157 95.3877 106.771C103.378 112.862 108.555 118.789 113.137 124.001C120.177 132.013 125.727 138.348 137.907 142.006C145.599 144.315 149.23 146.442 148.988 148.526C148.802 150.141 146.195 151.428 141.223 152.368C136.399 153.267 129.433 153.82 121.09 153.942C114.795 154.045 108.257 156.722 101.087 162.179C94.8293 166.961 88.9062 173.195 83.6729 178.713C75.944 186.867 69.1837 194 63.6524 194C63.1123 194 62.5907 193.939 62.0879 193.796C57.5251 192.57 53.8934 189.013 51.584 183.557C49.256 177.998 48.4734 170.824 49.3487 162.792C50.1495 155.557 52.4776 148.383 56.128 142.047C69.109 119.463 79.8929 107.078 88.1807 105.238ZM90.2852 105.627C89.652 105.627 88.981 105.709 88.3106 105.852C80.1904 107.65 69.5188 119.934 56.6123 142.374C53.0179 148.628 50.708 155.72 49.9258 162.873C49.0691 170.782 49.8333 177.855 52.124 183.312C54.3403 188.604 57.8413 192.038 62.2364 193.224C62.702 193.346 63.1867 193.407 63.6709 193.407C68.9602 193.407 75.6463 186.356 83.2823 178.304C88.5157 172.765 94.4569 166.511 100.771 161.708C108.034 156.19 114.683 153.452 121.09 153.35C129.415 153.227 136.343 152.675 141.129 151.775C147.293 150.611 148.355 149.201 148.448 148.465C148.709 146.135 141.073 143.58 137.776 142.599C125.448 138.879 119.842 132.502 112.765 124.43C108.202 119.239 103.042 113.352 95.0899 107.282C93.6373 106.179 92.0357 105.627 90.2852 105.627Z" fill="#848484"/>
<path d="M165.572 148.252C168.98 145.875 173.413 145.367 178.795 146.789C183.059 147.907 187.92 150.223 193.246 153.677C202.11 159.427 209.354 166.457 209.708 166.803C212.315 168.814 213.358 170.318 212.892 171.436C212.446 172.472 210.658 173 207.455 173C204.717 173 200.955 172.614 196.132 171.862C187.398 170.481 177.435 168.185 171.551 166.62C161.718 164.019 157.51 161.723 157.044 158.676C156.616 155.933 159.334 152.62 165.572 148.252ZM173.189 146.606C170.359 146.606 167.919 147.338 165.871 148.76C159.93 152.925 157.23 156.136 157.584 158.533C158.105 161.967 164.995 164.243 171.662 166.011C187.826 170.298 210.974 174.483 212.352 171.171C212.538 170.724 212.407 169.627 209.354 167.271L209.336 167.25C209.261 167.189 201.942 160.016 192.947 154.185C187.677 150.771 182.873 148.475 178.664 147.378C176.709 146.87 174.884 146.606 173.189 146.606Z" fill="#848484"/>
<path d="M177.24 153.928C179.555 152.186 183.063 152.899 187.62 156.047C190.857 158.271 193.515 160.998 193.715 161.209C194.438 161.796 195.216 162.573 194.945 163.265C194.8 163.643 194.384 164 192.793 164C191.853 164 190.514 163.874 188.579 163.559C185.36 163.014 181.67 162.111 179.5 161.503C176.372 160.621 174.256 159.719 174.021 158.208C173.84 157.033 174.835 155.711 177.24 153.928ZM180.152 153.655C179.193 153.655 178.307 153.907 177.547 154.473C175.45 156.026 174.437 157.264 174.545 158.103C174.726 159.341 177.204 160.201 179.61 160.873C187.693 163.16 194.095 163.874 194.439 163.013C194.441 163.007 194.535 162.688 193.39 161.733L193.371 161.713C193.278 161.626 185.612 153.655 180.152 153.655Z" fill="#848484"/>
<path d="M232.51 51.7734C227.966 53.6012 225.273 58.3657 221.515 64.9785C219.701 68.1822 217.625 71.8172 215.026 75.6781C206.573 88.1439 198.065 83.5642 183.965 75.9862C176.691 72.0636 167.621 67.1965 156.42 63.6642C140.132 58.53 129.268 58.797 123.209 64.4856C117.655 69.7019 115.897 79.3336 117.655 94.7977C119.188 108.208 128.351 118.538 144.882 125.521C160.459 132.092 178.897 133.961 188.49 134.516C205.171 135.44 219.813 138.274 232.043 142.895C241.804 146.591 250.051 151.438 256.54 157.311C258.671 159.242 260.485 161.152 262 163V162.096C260.56 160.412 258.896 158.646 256.951 156.88C250.406 150.945 242.103 146.057 232.267 142.34C219.981 137.699 205.264 134.865 188.528 133.92C178.953 133.386 160.59 131.517 145.088 124.966C128.763 118.086 119.712 107.921 118.216 94.7567C116.477 79.5185 118.178 70.0716 123.583 64.999C129.492 59.4541 140.188 59.2077 156.27 64.3008C167.434 67.8331 176.466 72.6797 183.722 76.5817C190.884 80.4426 196.55 83.482 201.599 84.016C207.078 84.591 211.36 82.1472 215.474 76.0888C218.092 72.2279 220.168 68.5724 222.001 65.3482C225.685 58.838 228.359 54.1351 232.716 52.3895C237.316 50.5412 243.543 52.102 253.566 57.6058C256.614 59.2898 259.419 61.1381 262 63.0891V62.3087C259.494 60.4194 256.764 58.6532 253.809 57.0308C243.618 51.4448 237.26 49.8635 232.51 51.7734Z" fill="#848484"/>
<path d="M243.574 71.0071C238.972 71.1515 235.081 73.5652 232.013 78.1864C229.226 82.3743 227.262 86.1909 225.503 89.533C219.854 100.364 217.272 105.315 199.968 97.8263C194.918 95.6395 188.969 92.4625 182.665 89.0998C165.305 79.8162 145.625 69.2948 135.206 74.4111C132.063 75.9377 129.912 78.8672 128.808 83.0757C127.312 88.7697 127.891 93.9272 130.566 98.404C134.457 104.902 142.651 110.06 155.596 114.186C165.66 117.404 178.624 119.983 196.358 122.335C213.774 124.646 231.807 130.793 247.109 139.623C252.815 142.924 257.885 146.472 262 150V149.175C257.941 145.75 253.002 142.326 247.353 139.066C231.994 130.195 213.886 124.027 196.395 121.716C178.68 119.364 165.754 116.785 155.727 113.567C142.913 109.482 134.832 104.387 131.015 98.0326C128.434 93.7209 127.873 88.749 129.313 83.2202C130.398 79.1354 132.381 76.4328 135.393 74.9681C145.588 69.9756 165.137 80.4351 182.384 89.6568C188.688 93.0401 194.656 96.2172 199.725 98.404C208.274 102.097 213.531 102.922 217.31 101.127C220.957 99.3942 223.053 95.392 225.933 89.8424C227.673 86.5004 229.637 82.725 232.406 78.5577C235.362 74.1016 239.103 71.7704 243.536 71.626C249.785 71.4403 256.575 75.6489 261.981 80.1256V79.3417C253.488 72.3274 247.353 70.8833 243.574 71.0071Z" fill="#848484"/>
<path d="M242.579 86.1343C239.267 86.7438 236.821 89.5476 235.297 94.4644C230.742 109.113 220.091 108.118 213.034 107.467C209.195 107.102 206.41 106.858 206.071 109.235C205.639 112.242 207.163 114.558 210.927 116.488C214.276 118.215 219.094 119.556 224.664 121.08C236.332 124.29 251.273 128.415 261.981 139V138.167C251.217 127.765 236.388 123.681 224.796 120.491C213.731 117.443 205.751 115.249 206.617 109.316C206.862 107.589 209.082 107.711 212.978 108.077C216.591 108.402 221.07 108.829 225.304 107.285C230.31 105.456 233.753 101.332 235.823 94.6676C237.272 89.9946 239.587 87.3127 242.673 86.7438C248.488 85.6467 256.147 91.9654 262 98.0199V97.1666C261.699 96.8415 261.379 96.5368 261.059 96.2117C253.456 88.6536 247.246 85.2606 242.579 86.1343Z" fill="#848484"/>
<path d="M250.326 101.746C247.403 100.553 244.935 100.788 243.037 102.471C241.48 103.834 240.816 105.773 241.044 108.222C241.86 116.701 253.382 129.184 262 135V134.233C258.185 131.613 253.933 127.778 250.288 123.624C245.087 117.681 241.993 112.185 241.594 108.116C241.385 105.922 241.974 104.175 243.378 102.939C248.485 98.4443 256.894 106.326 262 112.163V111.247C260.823 109.905 259.475 108.499 258.052 107.157C255.223 104.516 252.623 102.684 250.326 101.746Z" fill="#848484"/>
<path d="M142.145 80.2588C148.047 78.8428 159.16 83.2342 175.149 93.3506C187.028 100.837 197.321 108.869 197.433 108.95C199.655 110.751 200.439 112.228 199.767 113.341C199.019 114.534 196.61 115 193.435 115C189.083 115 183.255 114.13 178.138 113.018C165.679 110.327 153.799 105.753 146.365 100.796C137.998 95.2115 135.159 89.1616 138.166 83.2939C138.969 81.716 140.314 80.7039 142.145 80.2588ZM144.517 80.6035C143.695 80.6035 142.947 80.6838 142.256 80.8457C140.594 81.2504 139.38 82.1611 138.651 83.5771C137.157 86.4907 137.176 89.4451 138.726 92.3789C140.127 95.0497 142.798 97.7009 146.646 100.271C154.024 105.187 165.828 109.739 178.231 112.41C183.554 113.563 188.579 114.251 192.37 114.353C197.544 114.494 198.926 113.543 199.281 112.977C199.898 112.005 198.441 110.508 197.096 109.436C196.595 109.039 159.998 80.6039 144.517 80.6035Z" fill="#848484"/>
<path d="M151.686 90.1201C154.102 89.4749 159.474 91.4305 167.635 95.9473C173.676 99.2908 179.085 102.889 179.159 102.928C179.438 103.143 180.311 103.827 179.884 104.472C179.642 104.863 178.899 105 177.895 105C175.144 105 170.479 103.866 169.289 103.572C163.099 102.008 157.355 99.7603 153.935 97.5508C150.496 95.3218 149.307 93.1507 150.385 91.0977C150.645 90.609 151.091 90.2766 151.686 90.1201ZM152.745 90.5703C152.392 90.5703 152.095 90.6094 151.816 90.6875C151.352 90.8048 151.054 91.0389 150.868 91.3711C149.957 93.0918 151.072 94.989 154.214 97.0225C157.578 99.2124 163.266 101.442 169.419 102.986C175.739 104.57 179.122 104.609 179.438 104.12C179.475 104.1 179.417 103.865 178.824 103.397C178.294 103.038 159.305 90.5703 152.745 90.5703Z" fill="#848484"/>
<path d="M79.6894 123.581C84.2458 119.929 88.3377 118.443 91.834 119.186C94.7166 119.805 97.1897 121.889 99.1982 125.397C101.17 128.823 102.118 132.785 101.988 136.871C101.858 140.936 100.649 144.836 98.5107 148.138L97.9336 149.025C90.8294 159.983 83.5023 171.312 67.5088 178.782C65.6492 179.649 64.1239 180 62.8779 180C60.3487 180 58.9725 178.555 58.1914 177.028C53.2259 167.268 64.4395 135.839 79.6894 123.581ZM90.0303 119.64C87.0733 119.64 83.7253 121.147 80.0244 124.118C73.1248 129.669 66.3364 139.925 61.873 151.543C57.6886 162.418 56.4432 172.323 58.6748 176.739C60.1812 179.69 63.0636 180.186 67.2851 178.205C83.1301 170.797 90.4203 159.55 97.4687 148.654L98.0459 147.767C100.129 144.568 101.3 140.792 101.431 136.851C101.561 132.888 100.63 129.05 98.7334 125.748C96.8179 122.405 94.4562 120.404 91.7412 119.826C91.1834 119.702 90.6067 119.64 90.0303 119.64Z" fill="#848484"/>
<path d="M80.5901 134.716C83.3165 132.552 85.7569 131.669 87.8733 132.11C89.6084 132.468 91.1154 133.708 92.3166 135.809C94.6998 139.969 94.547 145.264 91.8967 149.318C87.6828 155.768 83.0868 160.685 73.3244 165.223C72.1426 165.769 71.1705 166 70.3889 166C68.8825 166 68.0618 165.181 67.6233 164.319C66.3077 161.756 67.1093 156.336 69.7024 150.18C72.41 143.793 76.4715 137.993 80.5901 134.716ZM86.7863 132.636C85.0513 132.636 83.1064 133.519 80.9328 135.241C76.9096 138.456 72.905 144.149 70.2356 150.452C67.7377 156.314 66.9186 161.651 68.1389 164.025C68.9398 165.601 70.6178 165.811 73.1154 164.655C82.7633 160.18 87.2821 155.327 91.4387 148.961C93.9556 145.116 94.1081 140.094 91.8391 136.165C90.7143 134.233 89.3608 133.078 87.7785 132.741C87.4544 132.678 87.1296 132.636 86.7863 132.636Z" fill="#848484"/>
<path d="M253.709 165.929C248.925 162.819 244.16 162.16 240.315 164.075C234.593 166.897 231.967 174.805 234.218 182.466C234.8 184.443 234.443 186.029 233.168 187.264C229.135 191.136 216.097 191.465 197.376 188.15C181.206 185.287 163.779 180.118 154.981 175.546C147.684 171.757 141.793 171.139 137.46 173.672C133.615 175.917 131.082 180.736 130.125 187.573C128.7 197.808 109.097 207.57 93.3393 215.396C82.1591 220.956 73.3237 225.343 72.1419 228.947C71.9355 229.565 71.9543 230.141 72.1981 230.677C73.2486 233.066 75.8186 233.477 80.5646 232.015C84.9354 230.656 91.1258 227.752 98.9482 224.066C111.085 218.341 127.724 210.494 149.072 203.019C166.574 196.902 181.787 197.602 194.281 205.099C201.053 209.176 206.905 215.19 211.67 222.974C215.741 229.647 218.986 237.617 221.031 246.04C222.531 252.218 225.814 257.367 230.804 261.341C234.837 264.554 240.015 267.025 246.168 268.693C250.97 269.991 256.429 270.773 262 271V270.382C256.466 270.156 251.064 269.373 246.299 268.076C240.221 266.449 235.119 263.998 231.142 260.826C226.264 256.934 223.057 251.909 221.575 245.855C219.511 237.349 216.247 229.317 212.139 222.604C207.318 214.716 201.409 208.641 194.543 204.522C181.919 196.923 166.555 196.223 148.903 202.38C127.518 209.856 110.879 217.702 98.7231 223.448C83.2096 230.759 74.6555 234.795 72.7046 230.368C72.5358 229.976 72.517 229.565 72.6671 229.111C73.7739 225.755 82.947 221.183 93.5832 215.911C101.499 211.977 110.485 207.508 117.557 202.772C125.736 197.294 130.032 192.33 130.688 187.614C131.607 180.983 134.046 176.329 137.723 174.166C141.906 171.716 147.627 172.354 154.756 176.061C167.849 182.857 199.814 190.971 219.23 190.971C225.927 190.971 231.142 190.003 233.562 187.676C235.025 186.276 235.437 184.443 234.781 182.219C232.624 174.866 235.119 167.267 240.577 164.569C247.593 161.11 255.359 166.341 261.981 174.537V173.487C259.242 170.295 256.485 167.741 253.709 165.929Z" fill="#848484"/>
<path d="M251.522 176.367C249.579 175.712 247.749 175.937 246.087 177.022C241.212 180.237 242.276 186.135 243.21 191.357C243.864 194.982 244.48 198.401 242.967 200.306C241.921 201.616 239.886 202.169 236.766 201.965C229.65 201.514 222.814 199.855 217.323 198.524C210.02 196.763 204.734 195.473 202.81 197.828C202.231 198.545 201.951 199.343 202.007 200.224C202.156 203.009 205.518 206.265 209.796 210.381C215.941 216.32 223.599 223.733 226.232 233.685C228.81 243.392 232.284 252.996 240.315 257.44C243.397 259.14 247.002 260 251.167 260C254.417 260 258.022 259.488 261.981 258.444V257.809C253.016 260.184 245.956 259.877 240.558 256.887C232.732 252.546 229.295 243.085 226.755 233.501C224.065 223.385 216.352 215.91 210.151 209.91C205.985 205.876 202.698 202.702 202.549 200.163C202.511 199.446 202.735 198.811 203.221 198.217C204.921 196.128 210.337 197.439 217.211 199.098C222.721 200.429 229.594 202.087 236.748 202.538C240.054 202.743 242.22 202.128 243.397 200.654C245.078 198.524 244.443 194.961 243.771 191.193C242.818 185.93 241.847 180.503 246.385 177.514C247.898 176.51 249.579 176.326 251.372 176.899C254.529 177.944 258.171 181.527 262 187.282V186.217C258.899 181.732 255.201 177.575 251.522 176.367Z" fill="#848484"/>
<path d="M255.25 196.309C252.558 197.279 250.677 200.517 250.584 204.395C250.529 206.829 250.086 208.335 249.183 209.263C247.228 211.264 242.747 210.955 234.595 210.398L233.636 210.336C230.483 210.13 228.767 210.583 228.196 211.759C227.329 213.595 229.45 216.71 232.401 221.042C235.038 224.899 238.32 229.685 240.165 234.8C241.585 238.719 244.001 241.422 247.32 242.845C249.275 243.67 251.414 244 253.554 244C256.578 244 259.584 243.361 262 242.639V241.979C257.574 243.319 252.023 244.165 247.523 242.267C244.351 240.927 242.046 238.327 240.681 234.573C238.8 229.375 235.499 224.548 232.843 220.67C230.224 216.854 227.974 213.554 228.675 212.069C229.118 211.14 230.722 210.79 233.581 210.975L234.54 211.037C243.097 211.615 247.412 211.904 249.533 209.738C250.566 208.686 251.064 207.036 251.119 204.416C251.211 200.806 252.927 197.794 255.398 196.907C257.371 196.206 259.639 196.846 262 198.681V197.898C258.976 195.649 256.633 195.814 255.25 196.309Z" fill="#848484"/>
<path d="M250.807 218.181C249.105 220.328 248.58 223.041 249.34 225.836C250.173 228.874 253.252 230.595 258.486 230.939C259.175 230.98 259.863 231 260.515 231C261.022 231 261.529 230.98 262 230.959V230.352C257.635 230.534 251.043 230.048 249.847 225.633C249.141 223.041 249.63 220.53 251.188 218.566C253.361 215.832 257.255 214.435 261.982 214.617V214.009C257.128 213.868 253.089 215.326 250.807 218.181Z" fill="#848484"/>
<path d="M20.759 154.714C27.8926 157.919 34.7053 161 39.31 161C40.5556 161 41.6313 160.773 42.5182 160.276C43.7638 159.573 44.5564 158.312 44.8961 156.554C45.7076 152.419 41.6879 148.428 35.5923 142.39C29.5533 136.414 21.2874 128.246 13.984 116.005C9.02073 107.713 4.35939 102.378 0.0188718 100V100.682C4.18955 103.06 8.69991 108.271 13.4934 116.336C20.8534 128.66 29.1381 136.848 35.196 142.845C41.1406 148.738 45.0848 152.625 44.3299 156.409C44.0091 158.002 43.3297 159.077 42.2351 159.697C38.3287 161.951 29.893 158.146 20.9666 154.114C15.0786 151.467 8.98299 148.717 3.69888 147.477C2.37785 147.166 1.13231 146.96 0 146.856V147.477C1.09457 147.58 2.30236 147.766 3.58565 148.076C8.83202 149.338 14.9087 152.067 20.759 154.714Z" fill="#848484"/>
<path d="M17.2276 143C19.1018 143 20.2911 142.482 20.7777 141.465C21.9671 138.914 18.381 134.05 10.0915 126.953C6.34323 123.764 2.4508 120.814 0 119V119.698C8.19935 125.738 22.1833 137.159 20.3092 141.186C19.9127 142.043 18.8315 142.422 17.3178 142.422C13.3352 142.422 6.27115 139.91 0 137.239V137.877C1.35154 138.455 2.77516 139.033 4.21681 139.591C10.0555 141.864 14.4164 143 17.2276 143Z" fill="#848484"/>
<path d="M101.083 186.53C104.593 181.923 109.913 179.519 115.252 180.08C118.392 180.421 119.981 181.623 120 183.686C120.037 190.516 100.879 204.778 92.2517 205.779C90.9959 205.94 90.0356 206 89.3152 206C87.7634 206 87.2461 205.7 87.0613 205.259C86.6918 204.338 88.0222 203.016 90.2391 200.813C92.6037 198.469 95.8361 195.263 97.9236 191.438C98.9212 189.615 99.9744 187.973 101.083 186.53ZM113.737 180.621C109.082 180.621 104.611 182.905 101.526 186.911C100.436 188.313 99.4017 189.956 98.4226 191.738C96.2982 195.644 93.0098 198.889 90.6267 201.253C89.0385 202.835 87.376 204.477 87.5965 204.998C87.7258 205.319 88.6317 205.599 92.2156 205.179C96.169 204.718 102.764 201.293 109.026 196.466C115.473 191.498 119.482 186.591 119.464 183.706C119.464 182.004 118.023 180.982 115.233 180.701C114.735 180.641 114.236 180.621 113.737 180.621Z" fill="#848484"/>
<path d="M18.3087 82.0488C22.5251 90.5264 27.0413 99.2496 31.4452 105.618C36.2987 112.601 40.5152 116 44.3568 116C44.3943 116 44.4318 116 44.4692 116C48.2921 115.939 51.6653 112.58 54.776 105.782C61.3162 91.5093 69.0557 82.786 77.17 80.5949C82.7169 79.1001 88.4138 80.5744 94.0919 85.018C98.4582 88.4377 101.569 89.5639 103.555 88.4786C106.498 86.8814 106.666 80.9225 106.854 74.0422C107.06 66.4861 107.285 57.9062 111.426 53.9745C113.356 52.1521 115.942 51.4763 119.334 51.8859C128.217 52.9916 136.668 51.5173 143.771 47.6676C150.517 44.0021 155.745 38.4119 158.875 31.4906C161.855 24.9174 162.717 17.5046 161.405 10.0919C160.861 6.99982 159.943 3.9692 158.688 1H158.05C162.435 11.1157 162.679 21.7639 158.388 31.2244C155.314 38.0228 150.18 43.5107 143.546 47.1147C136.537 50.9234 128.179 52.3568 119.409 51.2715C115.905 50.8415 113.094 51.5787 111.07 53.5036C106.741 57.599 106.516 66.3223 106.291 74.0012C106.123 80.4106 105.954 86.4719 103.312 87.9053C101.513 88.8882 98.6081 87.7619 94.4104 84.4856C88.5824 79.9396 82.7356 78.4243 77.02 79.9601C68.7371 82.2126 60.8664 91.0383 54.2701 105.475C51.253 112.048 48.0485 115.283 44.4692 115.345C44.4318 115.345 44.3943 115.345 44.3568 115.345C36.205 115.345 27.2662 98.7377 18.7959 81.7007C13.605 71.3187 7.30847 64.1517 0 60.3429V61.0187C7.08359 64.807 13.2302 71.8511 18.3087 82.0488Z" fill="#848484"/>
<path d="M25.1884 56C28.4115 56 31.2433 55.4854 33.5721 54.4356C38.8818 52.0479 41.5273 47.1695 41.4342 39.8829C41.341 32.7403 43.0737 27.4296 46.7252 23.6628C55.7238 14.3177 75.0995 15.9233 95.6302 17.6523C98.6484 17.8993 101.778 18.1669 104.852 18.3933C107.852 18.6198 110.609 18.7227 113.143 18.7227C124.712 18.7227 131.27 16.4379 132.705 11.8888C133.711 8.67777 132.034 4.78743 129.351 1H128.625C131.382 4.76684 133.133 8.61602 132.183 11.7036C130.544 16.9319 121.378 18.9903 104.908 17.7964C101.834 17.57 98.7043 17.3024 95.6861 17.0554C75.0436 15.3263 55.5375 13.7002 46.3526 23.2305C42.5893 27.1415 40.8007 32.5962 40.8939 39.924C40.9871 46.9225 38.4533 51.6362 33.3858 53.9004C26.8651 56.8234 16.2644 55.4854 4.26638 50.2365C2.83183 49.619 1.41592 48.9397 0 48.2399V48.9192C1.34139 49.5984 2.70142 50.2365 4.06144 50.8129C11.9235 54.2298 19.2267 56 25.1884 56Z" fill="#848484"/>
<path d="M14.5462 35.9594C21.2512 35.5122 26.9318 31.6707 31.4577 24.5366L32.2027 23.3577C37.6971 14.6992 40.4536 10.3496 44.5325 8.54065C48.6114 6.73171 54.1431 7.38211 65.1691 8.70325C66.5101 8.86585 67.9443 9.02846 69.4529 9.21138C82.5277 10.7358 91.9892 11.2642 98.3776 10.7764C104.543 10.3089 108.044 8.94715 109.385 6.4878C110.205 4.98374 110.167 3.15447 109.497 1H108.919C109.59 3.07317 109.664 4.80081 108.901 6.18293C107.672 8.39837 104.226 9.71951 98.3404 10.1667C91.9706 10.6545 82.5463 10.1463 69.5088 8.60163C68.0001 8.4187 66.566 8.2561 65.225 8.0935C54.1058 6.75203 48.5369 6.0813 44.309 7.97154C40.0811 9.86179 37.2874 14.252 31.7371 23.0122L30.9921 24.1911C26.5593 31.1626 21.0277 34.9228 14.5089 35.3496C11.1564 35.5732 6.29527 34.9431 0 31.7317V32.4024C5.53165 35.187 9.96441 36 13.261 36C13.7267 36 14.1551 35.9797 14.5462 35.9594Z" fill="#848484"/>
<path d="M22.8757 22.4765C25.6246 21.0589 27.5085 18.6467 28.4504 15.3036C29.8537 10.437 30.1613 5.52806 29.9306 1H29.3539C29.5846 5.46458 29.277 10.31 27.8929 15.1132C26.9894 18.287 25.2017 20.5722 22.6065 21.9052C16.4359 25.0791 6.84347 22.4765 0 19.874V20.5511C4.59435 22.2861 10.3998 24 15.6285 24C18.2621 24 20.7611 23.5557 22.8757 22.4765Z" fill="#848484"/>
<path d="M137.84 16.0704C134.151 24.0548 117.813 22.9725 117.626 22.9521C108.479 22.9521 99.9834 22.2374 92.494 21.5839C81.3531 20.6241 71.7213 19.8073 64.6046 21.829C60.8412 22.8908 57.9163 24.7082 55.6807 27.3629C53.2587 30.2218 51.6193 34.0813 50.6505 39.1252C47.4275 55.9925 38.988 58.0142 32.1879 59.6274C28.0893 60.6076 24.5495 61.4448 23.3758 65.4472C22.3139 69.1025 23.5435 76.3722 26.543 83.9687C29.7474 92.1165 34.1069 98.4264 38.2055 100.836C39.5283 101.612 40.851 102 42.0992 102C44.4839 102 46.7382 100.611 48.713 97.8955C51.7124 93.7705 54.153 89.278 56.519 84.9284C60.9344 76.8011 64.735 69.7968 70.6408 68.2244C74.2737 67.2647 78.5027 68.4491 83.5329 71.9001C90.2025 76.4539 94.8228 77.8833 97.6732 76.2701C101.213 74.2689 101.567 68.0815 101.94 61.5061C102.443 52.6844 102.964 43.5564 111.236 43.9648C113.136 44.0465 114.962 44.1078 116.732 44.1078C134.617 44.1078 146.224 39.4723 151.235 30.2831C155.185 23.0746 154.179 14.3755 152.651 8.37182C151.924 5.49252 151.012 2.96037 150.211 1H149.596C150.415 2.96037 151.366 5.59462 152.111 8.5556C154.812 19.2355 152.856 26.0968 150.751 29.9767C145.348 39.8603 132.046 44.3732 111.255 43.3726C107.286 43.1888 104.641 45.0267 103.169 49.0087C101.884 52.4598 101.623 57.0544 101.381 61.5061C101.027 67.8977 100.673 73.9218 97.4124 75.7596C94.7483 77.2707 90.3143 75.8413 83.8123 71.41C78.6331 67.8773 74.2737 66.652 70.4917 67.6731C64.3624 69.3067 60.4873 76.4131 56.016 84.663C53.6686 88.9921 51.228 93.4642 48.2472 97.5483C45.3409 101.53 42.0433 102.449 38.4291 100.326C34.4422 97.9772 30.1573 91.7897 27.0087 83.7645C24.1211 76.4131 22.8542 69.1434 23.8602 65.6719C24.9408 61.9962 28.1638 61.2202 32.2625 60.2604C35.6904 59.4436 39.5655 58.5247 43.0307 55.625C47.0362 52.276 49.7004 46.9258 51.1535 39.2681C52.9607 29.7725 57.1338 24.5857 64.6977 22.4416C67.8648 21.5431 71.5723 21.2163 75.6895 21.2163C80.6825 21.2163 86.3274 21.7064 92.4009 22.2169C99.9089 22.85 108.404 23.5851 117.552 23.5851C117.552 23.5851 117.552 23.5851 117.57 23.5851C117.608 23.5851 121.818 23.8914 126.42 23.1563C132.679 22.1761 136.666 19.889 138.306 16.3767C140.076 12.558 138.939 7.41205 134.915 1.02042H134.244C138.343 7.33037 139.535 12.3947 137.84 16.0704Z" fill="#848484"/>
<path d="M139.048 22.8755C135.989 27.1309 126.738 28.8953 112.321 27.9819C101.372 27.2969 91.2262 25.2834 91.1329 25.2626C91.0769 25.2419 84.8848 24.0171 77.9093 25.5325C73.7874 26.4043 70.2063 28.0442 67.2408 30.4107C63.5292 33.3583 60.7875 37.4269 59.1089 42.4919C55.8636 52.3105 52.2267 59.0153 47.9742 63.0009C44.2813 66.4675 40.6816 67.3809 37.3244 68.0244C32.4192 68.9585 30.7592 72.4458 30.237 75.2067C29.1925 80.6038 31.7104 87.8899 35.6272 90.8168C36.6903 91.6056 37.772 92 38.8165 92C39.7864 92 40.7376 91.6679 41.6328 90.9828C45.3071 88.2013 49.0746 82.8457 53.066 77.1995C60.657 66.426 68.5091 55.2996 76.3985 60.8836C77.5549 61.6931 78.6739 62.5027 79.7371 63.2915C85.5189 67.5054 90.1071 70.8475 92.998 69.2699C94.7139 68.3357 95.6838 65.8655 96.0381 61.4648C96.7655 52.3727 98.1084 45.5226 102.305 41.6616C105.289 38.9007 109.542 37.8836 115.323 38.5063C131.513 40.2708 142.181 37.074 147.049 29.0406C150.947 22.6056 150.276 14.2401 149.026 8.34477C148.317 5.00271 147.347 2.05505 146.583 0H145.986C146.751 2.0343 147.758 5.04422 148.485 8.49007C149.697 14.2608 150.35 22.4395 146.583 28.6877C141.845 36.5135 131.345 39.6065 115.379 37.8836C109.448 37.2401 105.065 38.3195 101.951 41.1841C97.6235 45.1904 96.2247 52.1652 95.4786 61.4233C95.1429 65.5334 94.2663 67.9206 92.7555 68.7301C90.1444 70.1417 85.6868 66.9034 80.0541 62.7933C78.9724 62.0045 77.8533 61.1949 76.6969 60.3854C72.9481 57.7283 68.9008 58.3926 64.3312 62.4197C60.3399 65.907 56.4232 71.4702 52.637 76.8466C48.6829 82.472 44.9341 87.7653 41.3344 90.5054C39.2268 92.1038 37.2498 91.2942 35.9442 90.3186C32.1954 87.5162 29.7894 80.5208 30.7779 75.352C31.2815 72.778 32.8295 69.519 37.4177 68.6471C40.8495 67.9829 44.5237 67.0487 48.3286 63.4783C52.6556 59.4097 56.3486 52.6218 59.6312 42.6995C61.2725 37.7383 63.9396 33.7735 67.5392 30.9088C70.4302 28.6047 73.9552 27.0063 77.9839 26.1345C80.595 25.574 83.0943 25.3872 85.2018 25.3872C88.6336 25.3872 90.9837 25.8646 91.021 25.8646C91.1142 25.8854 101.298 27.8989 112.283 28.5839C127.092 29.5181 136.25 27.7329 139.477 23.2491C142.666 18.8484 143.412 12.8908 141.621 6.04061C141.006 3.69495 140.204 1.61913 139.495 0.0207581H138.861C139.589 1.59838 140.446 3.75722 141.081 6.20668C142.293 10.8357 142.908 17.4991 139.048 22.8755Z" fill="#848484"/>
<path d="M78.9295 31.9992C80.9272 30.9328 83.1492 30.7072 85.2029 31.384C87.2194 32.0403 88.7321 33.4151 89.6844 35.466C92.5967 41.6395 90.0197 52.4891 88.2273 58.3957C87.7606 59.9541 87.1821 60.7745 86.4168 60.9592C86.3049 60.9797 86.1927 61.0001 86.0808 61.0002C84.8299 61.0002 83.3917 59.3802 81.5994 57.3703C79.9003 55.4629 77.9771 53.3089 75.6619 51.7912C71.797 49.248 69.8926 46.397 70.0047 43.2795C70.2103 37.8446 76.689 33.2093 78.9295 31.9992ZM82.7947 31.6301C81.5624 31.6301 80.3293 31.9376 79.1717 32.5529C77.0057 33.7221 70.7512 38.1728 70.5642 43.3C70.4522 46.1714 72.2825 48.8584 75.9607 51.258C78.3319 52.7962 80.3675 55.0938 82.0105 56.9397C83.7655 58.9084 85.2776 60.6106 86.3045 60.3645C86.8459 60.2209 87.3128 59.5236 87.7049 58.2111C91.8311 44.634 90.4118 38.3169 89.1795 35.7736C88.2833 33.8868 86.8834 32.6145 85.0349 31.9992C84.3069 31.7532 83.5601 31.6301 82.7947 31.6301Z" fill="#848484"/>
<path d="M80.4999 41.3437C81.0753 40.9822 81.7168 40.8969 82.3085 41.1309C82.8836 41.3649 83.3272 41.8328 83.623 42.5557C84.4449 44.5975 83.7382 48.1072 83.2451 50.0215C83.1629 50.3831 82.9983 50.8722 82.6367 50.9785C82.5874 50.9998 82.5541 51 82.5048 51C82.0941 50.9996 81.6995 50.4682 81.1738 49.7666C80.73 49.1711 80.2204 48.4904 79.6122 48.0225C78.511 47.1717 77.9681 46.1931 78.0009 45.1084C78.0666 42.9416 80.4775 41.3689 80.4999 41.3437ZM81.6181 41.6416C81.3058 41.6416 81.0097 41.7266 80.7138 41.918C80.27 42.2157 78.5437 43.5979 78.4941 45.1504C78.4612 45.9585 78.9217 46.7457 79.8583 47.4687C80.5158 47.9792 81.0757 48.7238 81.5195 49.3193C81.8809 49.787 82.3404 50.4037 82.5214 50.3408C82.5707 50.3408 82.6699 50.1702 82.7685 49.8086C83.1466 48.3408 83.9349 44.7249 83.1953 42.832C82.9652 42.2794 82.6367 41.9182 82.1767 41.748C81.996 41.6843 81.7988 41.6417 81.6181 41.6416Z" fill="#848484"/>
<path d="M228.978 37.1829C221.863 39.8865 216.927 47.7736 214.339 60.6206C213.147 66.5562 210.167 70.2964 205.492 71.7397C196.738 74.4636 182.732 68.2027 172.954 57.1649C165.113 48.3427 161.965 38.6465 164.312 30.5765C166.491 23.096 167.106 14.965 166.156 6.44777C165.951 4.65895 165.671 2.82947 165.336 1H164.759C165.113 2.87013 165.392 4.6996 165.597 6.52908C166.547 14.965 165.932 23.0147 163.79 30.4139C161.369 38.7075 164.573 48.607 172.563 57.6121C177.219 62.8566 183.067 67.2676 189.046 70.0322C193.292 72.004 197.39 73 201.003 73C202.679 73 204.244 72.7764 205.659 72.3495C210.465 70.8656 213.668 66.8611 214.897 60.7628C217.449 48.1395 222.236 40.415 229.164 37.7724C239.035 34.0119 251.682 41.0858 262 49.2778V48.5257C251.607 40.3337 238.961 33.402 228.978 37.1829Z" fill="#848484"/>
<path d="M232.104 21.1855C226.046 22.5148 221.433 26.9118 218.413 34.213C214.231 44.3159 208.923 51.3921 202.621 55.2779C195.869 59.4295 189.868 58.7341 186.023 57.4252C181.372 55.83 177.358 52.476 174.713 47.9767C171.975 43.3343 170.962 37.8533 171.881 32.5564C173.776 21.5536 174.488 10.9394 174.038 1H173.476C173.926 10.8984 173.213 21.4718 171.337 32.4337C170.4 37.8942 171.431 43.5183 174.245 48.2835C176.964 52.9055 181.09 56.3413 185.873 57.9774C187.88 58.6728 189.943 59 192.006 59C195.7 59 199.433 57.9161 202.902 55.7891C209.317 51.842 214.699 44.6636 218.938 34.4379C221.883 27.3209 226.346 23.067 232.217 21.7581C236.981 20.7151 242.701 21.6559 248.759 24.519C253.504 26.7482 258.305 30.1023 262 33.763V32.945C254.367 25.6234 242.063 18.9972 232.104 21.1855Z" fill="#848484"/>
<path d="M139.791 281.702C139.315 281.151 138.711 280.931 138.016 281.019C135.655 281.327 132.434 285.406 130 289H130.714C133.038 285.605 136.003 281.967 138.071 281.68C138.601 281.614 139.041 281.768 139.407 282.187C140.669 283.62 142.078 286.244 143.359 289H144C142.664 286.09 141.163 283.246 139.791 281.702Z" fill="#848484"/>
<path d="M256.459 20.6882C250.097 20.0229 242.411 17.2786 235.359 13.1206C227.187 8.2973 220.359 15.4906 212.467 23.8067C206.46 30.1476 199.65 37.3202 191.218 39.9189C188.251 40.8337 185.957 40.3555 184.371 38.5468C178.979 32.3306 182.598 11.9771 185.061 1H184.483C183.737 4.34719 182.878 8.52599 182.207 12.8919C180.136 26.4678 180.733 35.2412 183.979 38.9834C185.154 40.3347 186.666 41 188.494 41C189.389 41 190.341 40.8337 191.386 40.5218C199.93 37.9023 206.814 30.6674 212.859 24.264C220.602 16.1143 227.28 9.06653 235.098 13.6819C242.299 17.9439 249.873 20.6466 256.403 21.3118C258.437 21.5197 260.302 21.5197 262 21.3118V20.6882C260.34 20.8961 258.474 20.8961 256.459 20.6882Z" fill="#848484"/>
<path d="M192.969 27.9387C193.27 27.9796 193.553 28 193.854 28C198.868 28 204.466 22.0318 207.463 18.3119C211.441 13.4065 215.305 7.02952 218 1H217.378C214.72 6.88645 210.932 13.0999 207.049 17.9031C201.696 24.5254 196.72 27.8774 193.044 27.3255C191.517 27.1007 190.518 26.3444 189.99 25.0568C188.011 20.1514 193.364 8.7464 197.568 1.02044H196.908C196.079 2.57381 195.193 4.24981 194.345 5.98713C189.727 15.4095 188.087 21.9092 189.482 25.302C190.085 26.7941 191.253 27.673 192.969 27.9387Z" fill="#848484"/>
<path d="M199.709 14.9788C199.825 15 199.961 15 200.097 15C201.261 15 203.104 14.2364 205.665 11.0333C207.566 8.67879 209.39 5.47576 210.457 2.67576C210.631 2.20909 210.825 1.63636 211 1.02121H210.399C210.263 1.46667 210.108 1.93333 209.933 2.42121C207.741 8.19091 202.735 14.7879 199.806 14.3212C199.263 14.2364 198.913 13.9818 198.719 13.5152C197.73 11.0545 201.746 3.77879 203.473 1H202.774C201.533 3.05758 197.012 10.8 198.196 13.7697C198.448 14.4697 198.972 14.8727 199.709 14.9788Z" fill="#848484"/>
<path d="M252.8 14.206C249.152 13.6836 245.065 11.9284 240.63 8.98209C236.763 6.41194 233.299 3.36119 230.843 1H230C232.511 3.44478 236.195 6.76716 240.355 9.52537C244.864 12.5134 249.024 14.3104 252.745 14.8328C253.514 14.9373 254.266 15 255.017 15C257.601 15 259.929 14.3313 262 12.994V12.2627C259.342 14.0388 256.282 14.7075 252.8 14.206Z" fill="#848484"/>
<path d="M141.4 184.79C144.981 182.464 151.188 182.401 159.849 184.624C166.054 186.223 171.339 188.466 171.773 188.654C177.341 189.797 178.036 190.815 177.999 191.563C177.961 192.58 176.461 193.972 165.137 195.842C158.106 197.005 149.724 197.961 143.612 198.647L142.094 198.814C140.987 198.938 139.993 199 139.094 199C135.663 199 133.657 198.086 133.132 196.3C132.175 193.08 136.582 187.927 141.4 184.79ZM148.974 183.647C146.181 183.648 143.594 184.126 141.7 185.352C139.319 186.91 137.088 188.925 135.569 190.898C133.976 192.997 133.301 194.845 133.676 196.133C134.257 198.044 137.144 198.772 142.037 198.211L143.556 198.044C149.669 197.338 158.031 196.404 165.043 195.24C176.161 193.391 177.398 192.041 177.417 191.542C177.417 191.293 177.023 190.378 171.642 189.277L171.586 189.257C171.51 189.228 166.1 186.885 159.737 185.247C156.456 184.395 152.537 183.647 148.974 183.647Z" fill="#848484"/>
<path d="M152.284 48.7891C155.121 47.4231 158.503 47.8524 160.855 49.9014C162.72 51.521 164.741 53.824 163.731 55.7363C162.953 57.2194 160.485 58 157.201 58C155.006 58 152.44 57.6487 149.759 56.9268C147.33 56.2828 146.105 55.4043 146.008 54.2725C145.853 52.7115 147.971 50.8768 152.284 48.7891ZM155.725 48.5947C154.637 48.5947 153.548 48.8286 152.537 49.3164C148.593 51.2285 146.475 52.965 146.591 54.2139C146.669 55.053 147.815 55.7944 149.914 56.3603C156.113 58.0385 162.078 57.6289 163.225 55.4629C163.866 54.214 162.934 52.458 160.485 50.3506C159.125 49.1994 157.435 48.5948 155.725 48.5947Z" fill="#848484"/>
<path d="M205.295 281.664C195.489 280.315 189.729 271.281 182.464 259.835C180.431 256.646 178.323 253.335 175.951 249.901C170.003 241.296 163.34 236.125 156.169 234.531C148.019 232.732 139.059 235.512 129.554 242.788C119.108 250.78 103.994 263.636 91.025 275.573C87.3923 278.925 82.6491 283.381 78 288H78.8282C82.5173 284.362 86.7147 280.356 91.3826 276.043C104.332 264.127 119.428 251.27 129.855 243.299C147.567 229.748 162.926 232.098 175.481 250.289C177.833 253.703 179.941 257.014 181.974 260.202C189.334 271.771 195.15 280.887 205.201 282.277C212.334 283.258 216.419 285.179 217.398 288H218C217.078 284.832 212.805 282.706 205.295 281.664Z" fill="#848484"/>
<path d="M151.432 258.166C147.95 256.427 144.376 256.636 140.803 258.773C131.942 264.052 123.911 270.294 116.929 277.353C112.637 281.689 109.395 285.669 107 289H107.737C113.189 281.522 123.726 269.645 141.042 259.318C144.468 257.286 147.876 257.076 151.192 258.731C157.879 262.062 163.111 272.326 166.316 280.37C167.55 283.428 168.582 286.423 169.411 289H170C169.153 286.361 168.103 283.281 166.832 280.118C162.116 268.283 156.921 260.889 151.432 258.166Z" fill="#848484"/>
<path d="M64.7587 211.027C67.6792 209.233 71.6722 210.057 73.2421 211.46C73.9175 212.058 74.1564 212.76 73.8983 213.42C73.3817 214.823 71.3943 216.267 68.0165 217.69C67.5198 217.897 67.0232 218 66.5663 218C65.096 218 63.9439 217.01 63.3876 215.854C62.6922 214.369 62.8115 212.224 64.7587 211.027ZM68.5927 210.635C67.3807 210.635 66.1287 210.903 65.036 211.563C63.407 212.554 63.2883 214.286 63.9042 215.565C64.5201 216.844 65.9901 217.876 67.7782 217.113C70.9572 215.772 72.8846 214.41 73.3417 213.193C73.5404 212.678 73.1827 212.203 72.8251 211.935C71.9905 211.192 70.341 210.635 68.5927 210.635Z" fill="#848484"/>
<path d="M78.9483 267.109C82.7202 264.741 91.792 264.359 93.6026 266.005C93.9798 266.326 94.0926 266.748 93.9229 267.189C93.1869 269.177 85.2096 273.512 82.5694 274.656C82.0037 274.897 81.4565 275.018 80.9473 274.998C79.3257 274.998 78.0618 273.894 77.4395 272.569C76.6475 270.883 76.7987 268.454 78.9483 267.109ZM93.2256 266.467C91.6037 265.001 82.6828 265.463 79.2315 267.631C77.3834 268.795 77.2516 270.822 77.9493 272.308C78.6471 273.793 80.307 274.998 82.3438 274.095C85.6818 272.629 92.7906 268.535 93.376 266.969C93.4326 266.828 93.4517 266.667 93.2256 266.467Z" fill="#848484"/>
<path d="M15.8829 14.3398C19.0439 12.1845 18.0097 5.3301 16.9561 1H16.3512C16.6244 2.08738 16.878 3.34951 17.0927 4.6699C17.6 8.02913 17.7561 12.3592 15.5707 13.8738C12.9951 15.6214 7.76584 13.3301 0 7.05825V7.79612C5.99023 12.5922 10.5366 15 13.5805 15C14.478 15 15.239 14.767 15.8829 14.3398Z" fill="#848484"/>
<path d="M118.787 142.646C121.141 141.578 124.848 141.831 129.797 143.424C133.448 144.609 136.47 146.105 136.507 146.124C138.063 146.94 138.119 147.717 137.915 148.222C137.303 149.679 133.448 150.534 130.057 150.845C129 150.942 127.814 151 126.591 151C123.866 151 120.956 150.708 118.88 149.873C115.915 148.708 115.748 146.921 116.174 145.639C116.6 144.259 117.471 143.249 118.787 142.646ZM122.235 142.608C121.031 142.608 119.918 142.763 118.991 143.19C117.823 143.715 117.045 144.609 116.675 145.833C116.211 147.329 117.008 148.513 119.084 149.349C121.53 150.32 125.719 150.67 130.001 150.281C133.948 149.912 136.988 148.98 137.396 148.009C137.6 147.504 136.877 146.998 136.247 146.668C136.062 146.571 128.018 142.609 122.235 142.608Z" fill="#848484"/>
</g>
</svg>
