<svg width="250" height="73" viewBox="0 0 250 73" fill="none" xmlns="http://www.w3.org/2000/svg">
<g clip-path="url(#clip0_100_4)">
<path d="M17.7715 61.9106L15.4745 66.4758L13.1775 61.9106H10.7906H10.5892H8.04795L4.18683 66.4629V61.9106H1.93701V72.8274H4.18683V69.1899L4.61537 68.7714L8.00081 72.8274H10.7906L6.13239 67.2612L10.6663 62.0487L14.356 68.6506V72.8274H16.6101V68.6506L20.3898 61.9106H17.7715Z" fill="#9296A1"/>
<path d="M27.1693 67.1792C26.818 66.8996 26.4185 66.6875 25.9908 66.5535C25.5409 66.4088 25.0831 66.2907 24.6195 66.1997L23.9296 66.053C23.7214 66.013 23.5196 65.9447 23.3296 65.8502C23.1644 65.7722 23.0181 65.6588 22.9011 65.518C22.7874 65.3623 22.7313 65.1715 22.7425 64.9786C22.7478 64.8054 22.7996 64.6369 22.8925 64.491C22.9873 64.3511 23.1136 64.2358 23.261 64.1544C23.4231 64.0603 23.5999 63.9947 23.7839 63.9603C23.9853 63.9178 24.1908 63.8975 24.3967 63.8999C24.7432 63.8973 25.0849 63.9818 25.3909 64.1458C25.7224 64.3345 26.001 64.6047 26.2008 64.9311L28.0564 63.6841C27.6546 63.0458 27.085 62.532 26.4108 62.1998C25.7789 61.909 25.0913 61.7617 24.3967 61.7683C23.9141 61.7667 23.4337 61.8335 22.9696 61.9668C22.5284 62.0918 22.1122 62.2933 21.7397 62.5622C21.3752 62.8242 21.07 63.161 20.8441 63.5503C20.6023 63.9651 20.4654 64.4333 20.4455 64.9139V65.0045C20.4294 65.4998 20.5292 65.992 20.737 66.4413C20.9161 66.8341 21.1796 67.1819 21.5083 67.4597C21.8364 67.7291 22.2093 67.938 22.6097 68.0767C23.0205 68.2189 23.4438 68.3215 23.8738 68.3831C24.1481 68.4262 24.4181 68.4694 24.6795 68.5211C24.9133 68.5631 25.1398 68.6387 25.3523 68.7455C25.5221 68.8374 25.6687 68.9673 25.7808 69.1252C25.8883 69.2723 25.9427 69.4519 25.9351 69.6344C25.9448 69.8182 25.9024 70.0009 25.8128 70.1613C25.7233 70.3218 25.5903 70.4533 25.4294 70.5405C25.1107 70.7307 24.7457 70.8278 24.3752 70.821H24.2981C23.8521 70.806 23.4142 70.6972 23.0125 70.5017C22.5956 70.3146 22.2435 70.0066 22.0011 69.6171L20.287 70.9116C20.7099 71.5768 21.3017 72.1161 22.0011 72.4736C22.6402 72.81 23.3499 72.9875 24.071 72.9914C24.5611 72.9913 25.0487 72.9216 25.5194 72.7843C25.9777 72.6524 26.4118 72.447 26.805 72.1759C27.1961 71.9215 27.5303 71.5879 27.7864 71.1964C28.0343 70.7855 28.1812 70.321 28.2149 69.8415V69.5912C28.2288 69.1257 28.1395 68.6628 27.9535 68.2364C27.7806 67.8254 27.5116 67.4627 27.1693 67.1792Z" fill="#9296A1"/>
<path d="M35.7529 69.2372C35.7523 69.4714 35.6886 69.701 35.5686 69.9017C35.4599 70.0892 35.314 70.2522 35.1401 70.3806C34.9452 70.5148 34.7272 70.6114 34.4973 70.6654C34.252 70.7272 34.0002 70.7591 33.7473 70.7603C33.5015 70.7589 33.2569 70.727 33.0188 70.6654C32.7918 70.6105 32.5768 70.514 32.3846 70.3806C32.2096 70.2534 32.0635 70.0901 31.956 69.9017C31.8413 69.698 31.7835 69.4669 31.7889 69.2328V61.8975H29.5048V69.2328C29.4882 69.7749 29.5987 70.3132 29.8272 70.8043C30.0558 71.2953 30.3961 71.7252 30.8204 72.0591C31.2269 72.3775 31.6892 72.6161 32.1832 72.7625C32.691 72.9138 33.2177 72.9908 33.7473 72.9912C34.2839 72.9908 34.8178 72.9138 35.3329 72.7625C35.8299 72.6171 36.2952 72.3784 36.7042 72.0591C37.1268 71.7265 37.466 71.2987 37.6945 70.8101C37.923 70.3215 38.0344 69.7857 38.0198 69.2458V61.9104H35.7529V69.2372Z" fill="#9296A1"/>
<path d="M44.8036 70.5144C44.4475 70.6965 44.0543 70.7925 43.6551 70.7949H43.5951C43.3644 70.7949 43.1349 70.7615 42.9137 70.6957C42.7044 70.6337 42.5072 70.5359 42.3309 70.4066C42.1693 70.2927 42.0335 70.1456 41.9324 69.9751C41.8321 69.79 41.7819 69.5817 41.7867 69.371V65.3926C41.7837 65.1797 41.837 64.9697 41.9409 64.7842C42.0476 64.6023 42.1942 64.4473 42.3695 64.3312C42.5511 64.2045 42.7504 64.1056 42.9608 64.0377C43.1849 63.9643 43.4194 63.9278 43.6551 63.9299H43.7108C44.1099 63.9295 44.5034 64.0241 44.8593 64.206C45.2564 64.3909 45.5796 64.7057 45.7763 65.0992L47.5848 64.1154C47.4123 63.73 47.1761 63.3769 46.8862 63.0712C46.6146 62.784 46.3028 62.5383 45.9606 62.342C45.6319 62.1473 45.2768 62.002 44.9064 61.9105C44.5509 61.8173 44.1852 61.7695 43.8179 61.7681C43.2837 61.7668 42.7522 61.8454 42.2409 62.0011C41.7499 62.1468 41.2885 62.3791 40.8782 62.6872C40.4791 62.9897 40.1514 63.3772 39.9182 63.822C39.6705 64.3073 39.5468 64.8471 39.5583 65.3926V69.371C39.5454 69.9232 39.6722 70.4696 39.9268 70.9589C40.1643 71.3924 40.4934 71.768 40.891 72.0592C41.3052 72.3651 41.7693 72.5959 42.2623 72.741C42.7644 72.8916 43.2854 72.9687 43.8093 72.9696C44.5593 72.9692 45.2968 72.7761 45.952 72.4087C46.6663 71.998 47.2582 71.402 47.6662 70.6827L45.7249 69.5911C45.5341 69.9976 45.2082 70.3242 44.8036 70.5144Z" fill="#9296A1"/>
<path d="M54.8828 61.9106L51.0217 66.4629V61.9106H48.7719V72.8274H51.0217V69.1899L51.4502 68.7714L54.8357 72.8274H57.6254L52.9672 67.2612L57.6254 61.9106H54.8828Z" fill="#9296A1"/>
<path d="M62.2622 58.981L60.8094 61.1729H62.8921L64.8677 58.981H62.2622Z" fill="#9296A1"/>
<path d="M58.4653 72.8276H65.8147V70.6227H60.7323V68.4652H65.4033V66.2603H60.7323V64.1157H65.8147V61.8936H58.4653V72.8276Z" fill="#9296A1"/>
<path d="M76.5839 67.4942C76.5899 67.6156 76.6028 67.7366 76.6225 67.8566C76.6482 68.0378 76.6739 68.2407 76.7039 68.4737C76.7339 68.7067 76.7682 68.9397 76.8067 69.1813C76.8453 69.4229 76.8753 69.6128 76.9053 69.807L76.751 69.8372L75.9839 67.8653L72.5556 61.9106H70.3358V72.8274H72.6028V67.5071L72.3114 65.6431L72.4614 65.6129L73.1213 67.0929L76.4296 72.8274H78.8508V61.9106H76.601L76.5839 67.4942Z" fill="#9296A1"/>
<path d="M87.9402 62.6745C87.508 62.3634 87.025 62.1312 86.5131 61.9884C85.9839 61.834 85.4357 61.7556 84.8847 61.7554C84.3329 61.7566 83.7839 61.8321 83.252 61.9797C82.7403 62.1174 82.258 62.3485 81.8292 62.6615C81.4149 62.9614 81.0723 63.3505 80.8264 63.8007C80.5612 64.2896 80.4282 64.8402 80.4408 65.3972V69.3583C80.4282 69.9153 80.5612 70.4658 80.8264 70.9548C81.0737 71.4052 81.416 71.7955 81.8292 72.0983C82.2593 72.4082 82.7412 72.6376 83.252 72.7757C83.7839 72.9234 84.3329 72.9988 84.8847 73.0001C85.4357 72.9999 85.9839 72.9214 86.5131 72.7671C87.025 72.6242 87.508 72.392 87.9402 72.081C88.3509 71.779 88.6928 71.3921 88.9429 70.9462C89.2056 70.4595 89.3371 69.912 89.3243 69.3583V65.3972C89.3367 64.8435 89.2052 64.2961 88.9429 63.8093C88.6928 63.3634 88.3509 62.9765 87.9402 62.6745ZM87.0831 69.3583C87.0887 69.5718 87.0239 69.7812 86.8988 69.9537C86.7679 70.1338 86.5978 70.2813 86.4017 70.3852C86.1785 70.5038 85.9408 70.5923 85.6946 70.6484C85.4318 70.7093 85.1629 70.7397 84.8933 70.7391C84.6198 70.7402 84.3469 70.7127 84.079 70.6571C83.8337 70.6071 83.5969 70.5213 83.3762 70.4025C83.1818 70.2961 83.0123 70.149 82.8791 69.971C82.7488 69.7941 82.681 69.5785 82.6863 69.3583V65.3972C82.6832 65.18 82.7509 64.9678 82.8791 64.7931C83.0128 64.6156 83.1822 64.4685 83.3762 64.3616C83.5963 64.2438 83.8313 64.1567 84.0747 64.1027C84.337 64.0382 84.6061 64.0064 84.8761 64.0078C85.1498 64.008 85.4226 64.037 85.6903 64.0941C85.9357 64.144 86.1724 64.2298 86.3931 64.3486C86.5891 64.4528 86.7591 64.6003 86.8902 64.7801C87.0206 64.9587 87.0884 65.1757 87.0831 65.3972V69.3583Z" fill="#9296A1"/>
<path d="M95.1138 67.956L94.7024 70.2084H94.531L94.0896 67.956L92.0369 61.8936H89.6328L93.5539 72.8276H95.7266L99.6477 61.8936H97.2436L95.1138 67.956Z" fill="#9296A1"/>
<path d="M100.505 72.8276H107.858V70.6227H102.772V68.4652H107.443V66.2603H102.772V64.1157H107.858V61.8936H100.505V72.8276Z" fill="#9296A1"/>
<path d="M102.849 61.1729H104.932L106.907 58.981H104.302L102.849 61.1729Z" fill="#9296A1"/>
<path d="M117.368 68.1889L114.732 61.9106H112.375V72.8274H114.625V68.4952L114.381 66.3852H114.535L115.054 67.8782L116.558 71.3949H118.242L119.725 67.8955L120.247 66.368H120.415L120.14 68.4823V72.8274H122.39V61.9106H120.033L117.368 68.1889Z" fill="#9296A1"/>
<path d="M124.289 72.8276H131.642V70.6227H126.556V68.4652H131.227V66.2603H126.556V64.1157H131.642V61.8936H124.289V72.8276Z" fill="#9296A1"/>
<path d="M139.489 67.1793C139.139 66.8979 138.739 66.6856 138.31 66.5536C137.861 66.4078 137.403 66.2897 136.939 66.1998C136.708 66.148 136.476 66.0962 136.249 66.0531C136.043 66.0124 135.842 65.9442 135.653 65.8503C135.488 65.7723 135.342 65.6589 135.225 65.518C135.11 65.3629 135.052 65.1721 135.062 64.9786C135.071 64.8054 135.124 64.6374 135.216 64.4911C135.31 64.3502 135.437 64.2346 135.585 64.1545C135.746 64.0611 135.921 63.9955 136.103 63.9603C136.305 63.918 136.51 63.8978 136.716 63.8999C137.064 63.8973 137.407 63.9819 137.715 64.1459C138.045 64.3357 138.324 64.6057 138.525 64.9312L140.376 63.6842C139.974 63.0458 139.405 62.532 138.73 62.1998C138.099 61.9083 137.411 61.7609 136.716 61.7683C136.235 61.7665 135.756 61.8333 135.293 61.9668C134.851 62.0927 134.434 62.2941 134.059 62.5623C133.697 62.8267 133.392 63.1629 133.164 63.5504C132.922 63.9651 132.785 64.4334 132.765 64.9139V65.0045C132.751 65.4997 132.851 65.9914 133.057 66.4414C133.237 66.8343 133.502 67.1821 133.832 67.4597C134.16 67.7301 134.533 67.9391 134.934 68.0768C135.344 68.2194 135.768 68.3219 136.198 68.3831C136.472 68.4263 136.742 68.4694 136.999 68.5212C137.234 68.5632 137.462 68.6388 137.676 68.7456C137.846 68.8375 137.993 68.9674 138.105 69.1253C138.212 69.2724 138.267 69.452 138.259 69.6345C138.268 69.8181 138.226 70.0007 138.136 70.161C138.047 70.3213 137.914 70.4529 137.753 70.5406C137.433 70.7302 137.067 70.8273 136.695 70.8211H136.618C136.172 70.806 135.734 70.6972 135.332 70.5018C134.915 70.3146 134.563 70.0067 134.321 69.6172L132.607 70.9117C133.03 71.5764 133.622 72.1156 134.321 72.4737C134.958 72.81 135.667 72.9875 136.386 72.9915C136.876 72.9916 137.364 72.9219 137.835 72.7843C138.294 72.6542 138.728 72.4487 139.12 72.1759C139.523 71.9258 139.868 71.5918 140.132 71.1965C140.378 70.7847 140.524 70.3207 140.56 69.8416V69.5913C140.574 69.1257 140.485 68.6629 140.299 68.2364C140.118 67.8229 139.84 67.46 139.489 67.1793Z" fill="#9296A1"/>
<path d="M141.199 64.1805H144.306V72.8276H146.573V64.1805H149.684V61.8936H141.199V64.1805Z" fill="#9296A1"/>
<path d="M157.959 62.6745C157.528 62.3634 157.047 62.1312 156.536 61.9884C156.005 61.8338 155.456 61.7553 154.903 61.7554C154.353 61.757 153.805 61.8324 153.275 61.9797C152.762 62.1183 152.279 62.3493 151.848 62.6615C151.436 62.9641 151.094 63.3527 150.845 63.8007C150.583 64.2908 150.452 64.8408 150.464 65.3972V69.3583C150.452 69.9147 150.583 70.4646 150.845 70.9548C151.095 71.4033 151.437 71.7931 151.848 72.0983C152.28 72.4074 152.763 72.6368 153.275 72.7757C153.805 72.923 154.353 72.9985 154.903 73.0001C155.456 73.0001 156.005 72.9217 156.536 72.7671C157.047 72.6243 157.528 72.392 157.959 72.081C158.372 71.7814 158.714 71.394 158.962 70.9462C159.228 70.4607 159.361 69.9126 159.347 69.3583V65.3972C159.36 64.8429 159.227 64.295 158.962 63.8093C158.714 63.3615 158.372 62.974 157.959 62.6745ZM157.102 69.3583C157.107 69.5711 157.044 69.7798 156.922 69.9537C156.789 70.1339 156.618 70.2814 156.42 70.3852C156.199 70.5045 155.962 70.5931 155.717 70.6484C155.453 70.7094 155.183 70.7398 154.912 70.7391C154.64 70.74 154.368 70.7125 154.102 70.6571C153.856 70.6079 153.619 70.5221 153.399 70.4025C153.203 70.2962 153.032 70.1491 152.898 69.971C152.771 69.7927 152.704 69.5777 152.709 69.3583V65.3972C152.706 65.1807 152.772 64.969 152.898 64.7931C153.033 64.6155 153.204 64.4684 153.399 64.3616C153.617 64.243 153.851 64.1559 154.093 64.1027C154.357 64.0382 154.628 64.0064 154.899 64.0078C155.171 64.0083 155.443 64.0372 155.709 64.0941C155.956 64.144 156.194 64.2297 156.416 64.3486C156.611 64.454 156.781 64.6013 156.913 64.7801C157.042 64.9592 157.108 65.1762 157.102 65.3972V69.3583Z" fill="#9296A1"/>
<path d="M171.929 72.8274H184.699C185.644 72.8262 186.549 72.4481 187.216 71.7759C187.884 71.1037 188.259 70.1923 188.261 69.2416V32.2886L171.929 48.7328V72.8274Z" fill="white"/>
<path d="M209.443 10.96L193.112 27.4042H211.29V73H220.225C222.186 72.9978 224.066 72.2124 225.453 70.8162C226.84 69.42 227.62 67.527 227.622 65.5525V27.4042H246.37C246.848 27.4036 247.321 27.3081 247.763 27.1232C248.204 26.9382 248.605 26.6674 248.942 26.3263C249.279 25.9853 249.546 25.5805 249.727 25.1354C249.909 24.6902 250.002 24.2134 250 23.7322V10.96H209.443Z" fill="white"/>
<path d="M135.992 7.70215L141.391 0H135.765L132.842 3.62454L129.915 0H124.289L129.692 7.70215H135.992Z" fill="#82A81C"/>
<path d="M50.4174 40.323C50.4174 32.1634 46.132 27.8528 38.0327 27.8528H12.3847C9.12784 27.8528 7.67081 26.3857 7.67081 23.1064C7.67081 19.827 9.12356 18.36 12.3847 18.36H38.0327C41.2938 18.36 42.7466 19.8227 42.7466 23.1064V24.0988H50.4174V23.1064C50.4174 14.9468 46.132 10.6362 38.0327 10.6362H12.3847C4.28537 10.6362 0 14.9468 0 23.1064C0 31.2659 4.28537 35.5765 12.3847 35.5765H38.0327C41.2938 35.5765 42.7466 37.0393 42.7466 40.323C42.7466 43.6066 41.2938 45.0694 38.0327 45.0694H12.3847C9.12784 45.0694 7.67081 43.6066 7.67081 40.323V39.3305H0V40.323C0 48.4825 4.28537 52.7931 12.3847 52.7931H38.0327C46.1363 52.7931 50.4174 48.4825 50.4174 40.323Z" fill="#82A81C"/>
<path d="M104.563 25.9758C104.563 15.7969 99.4206 10.6362 89.3285 10.6362H69.3801C59.2709 10.6362 54.1456 15.8141 54.1456 25.9758V52.7931H61.8164V25.9758C61.8164 20.7979 64.2205 18.36 69.3801 18.36H89.3285C94.471 18.36 96.8922 20.7806 96.8922 25.9758C96.8922 31.171 94.4881 33.5917 89.3285 33.5917H73.3869L65.7161 41.3154H89.3285C99.4206 41.3154 104.563 36.1547 104.563 25.9758Z" fill="#82A81C"/>
<path d="M146.324 52.7931C154.428 52.7931 158.709 48.4782 158.709 40.323C158.709 32.1677 154.423 27.8528 146.324 27.8528H120.676C117.419 27.8528 115.962 26.3857 115.962 23.1064C115.962 19.827 117.419 18.36 120.676 18.36H146.324C149.585 18.36 151.038 19.8227 151.038 23.1064V24.0988H158.709V23.1064C158.709 14.9468 154.423 10.6362 146.324 10.6362H120.676C112.572 10.6362 108.291 14.9512 108.291 23.1064C108.291 31.2616 112.577 35.5765 120.676 35.5765H146.324C149.585 35.5765 151.038 37.0393 151.038 40.323C151.038 43.6066 149.585 45.0694 146.324 45.0694H120.676C117.419 45.0694 115.962 43.6066 115.962 40.323V39.3305H108.291V40.323C108.291 48.4825 112.577 52.7931 120.676 52.7931H146.324Z" fill="#82A81C"/>
<path d="M171.929 19.9652V36.4828L197.273 10.96H180.873C178.501 10.9622 176.228 11.9117 174.551 13.6001C172.874 15.2884 171.931 17.5776 171.929 19.9652Z" fill="#82A81C"/>
</g>
<defs>
<clipPath id="clip0_100_4">
<rect width="250" height="73" fill="white"/>
</clipPath>
</defs>
</svg>
