<svg width="147" height="43" viewBox="0 0 147 43" fill="none" xmlns="http://www.w3.org/2000/svg">
<g id="Datov&#195;&#189; zdroj 3 1" clip-path="url(#clip0_2_100)">
<g id="Vrstva 2">
<g id="Layer 1">
<path id="Vector" d="M10.4496 36.1543L9.09899 38.8202L7.74838 36.1543H6.34485H6.22642H4.73218L2.46184 38.8127V36.1543H1.13895V42.5294H2.46184V40.4052L2.71382 40.1608L4.70446 42.5294H6.34485L3.60583 39.2788L6.27178 36.2349L8.44132 40.0902V42.5294H9.76674V40.0902L11.9892 36.1543H10.4496Z" fill="#9296A1"/>
<path id="Vector_2" d="M15.9755 39.2308C15.7689 39.0674 15.534 38.9436 15.2826 38.8654C15.0181 38.7809 14.7488 38.7119 14.4762 38.6588L14.0706 38.5731C13.9482 38.5497 13.8295 38.5099 13.7178 38.4547C13.6206 38.4091 13.5346 38.3429 13.4658 38.2606C13.3989 38.1697 13.366 38.0583 13.3726 37.9457C13.3757 37.8445 13.4062 37.7461 13.4608 37.6609C13.5165 37.5792 13.5908 37.5119 13.6775 37.4644C13.7728 37.4094 13.8767 37.3711 13.9849 37.351C14.1034 37.3262 14.2242 37.3143 14.3452 37.3157C14.549 37.3142 14.7499 37.3636 14.9298 37.4593C15.1247 37.5695 15.2886 37.7273 15.406 37.9179L16.4971 37.1897C16.2609 36.8169 15.9259 36.5169 15.5295 36.3229C15.158 36.1531 14.7537 36.0671 14.3452 36.0709C14.0615 36.07 13.779 36.109 13.5061 36.1868C13.2467 36.2598 13.002 36.3775 12.7829 36.5346C12.5686 36.6876 12.3891 36.8842 12.2563 37.1116C12.1141 37.3538 12.0336 37.6272 12.022 37.9079V37.9608C12.0125 38.25 12.0711 38.5375 12.1933 38.7999C12.2986 39.0292 12.4536 39.2323 12.6469 39.3945C12.8398 39.5519 13.059 39.6739 13.2945 39.7549C13.536 39.8379 13.7849 39.8978 14.0378 39.9338C14.1991 39.959 14.3578 39.9842 14.5115 40.0144C14.649 40.0389 14.7822 40.0831 14.9071 40.1454C15.007 40.1991 15.0932 40.275 15.1591 40.3672C15.2223 40.4531 15.2543 40.558 15.2498 40.6645C15.2555 40.7718 15.2306 40.8786 15.1779 40.9722C15.1253 41.0659 15.0471 41.1427 14.9525 41.1937C14.7651 41.3047 14.5504 41.3614 14.3326 41.3575H14.2873C14.025 41.3487 13.7675 41.2852 13.5313 41.171C13.2862 41.0617 13.0791 40.8819 12.9366 40.6544L11.9287 41.4104C12.1774 41.7988 12.5254 42.1137 12.9366 42.3225C13.3124 42.519 13.7297 42.6226 14.1537 42.6249C14.4419 42.6249 14.7286 42.5841 15.0054 42.504C15.2748 42.427 15.5301 42.307 15.7613 42.1487C15.9913 42.0001 16.1878 41.8053 16.3384 41.5767C16.4841 41.3368 16.5705 41.0655 16.5904 40.7855V40.6393C16.5985 40.3674 16.546 40.0972 16.4366 39.8481C16.335 39.6081 16.1768 39.3963 15.9755 39.2308Z" fill="#9296A1"/>
<path id="Vector_3" d="M21.0227 40.4327C21.0223 40.5694 20.9849 40.7035 20.9143 40.8207C20.8504 40.9302 20.7646 41.0254 20.6623 41.1004C20.5477 41.1788 20.4196 41.2352 20.2844 41.2667C20.1401 41.3028 19.9921 41.3214 19.8434 41.3222C19.6989 41.3213 19.555 41.3027 19.415 41.2667C19.2816 41.2347 19.1551 41.1783 19.0421 41.1004C18.9392 41.0261 18.8533 40.9308 18.7901 40.8207C18.7227 40.7018 18.6887 40.5668 18.6919 40.4301V36.1465H17.3488V40.4301C17.3391 40.7467 17.404 41.0611 17.5384 41.3478C17.6728 41.6346 17.8729 41.8856 18.1224 42.0806C18.3614 42.2665 18.6332 42.4058 18.9237 42.4913C19.2223 42.5797 19.532 42.6247 19.8434 42.6249C20.1589 42.6247 20.4728 42.5797 20.7757 42.4913C21.068 42.4064 21.3416 42.2671 21.5821 42.0806C21.8306 41.8864 22.03 41.6365 22.1643 41.3512C22.2987 41.0659 22.3642 40.753 22.3557 40.4377V36.154H21.0227V40.4327Z" fill="#9296A1"/>
<path id="Vector_4" d="M26.3445 41.1784C26.1352 41.2847 25.9039 41.3408 25.6692 41.3422H25.6339C25.4983 41.3422 25.3633 41.3227 25.2333 41.2843C25.1102 41.2481 24.9942 41.191 24.8906 41.1154C24.7955 41.0489 24.7157 40.9631 24.6562 40.8635C24.5973 40.7554 24.5677 40.6338 24.5706 40.5107V38.1874C24.5688 38.0631 24.6001 37.9405 24.6613 37.8321C24.724 37.7259 24.8102 37.6354 24.9132 37.5676C25.0201 37.4936 25.1372 37.4359 25.261 37.3962C25.3927 37.3533 25.5306 37.332 25.6692 37.3332H25.7019C25.9366 37.333 26.168 37.3883 26.3772 37.4945C26.6107 37.6025 26.8008 37.7863 26.9165 38.0161L27.9798 37.4416C27.8784 37.2165 27.7396 37.0103 27.5691 36.8318C27.4094 36.6641 27.226 36.5206 27.0248 36.4059C26.8315 36.2923 26.6227 36.2074 26.405 36.154C26.1959 36.0996 25.9809 36.0716 25.7649 36.0708C25.4508 36.0701 25.1383 36.1159 24.8376 36.2069C24.549 36.292 24.2777 36.4276 24.0364 36.6075C23.8017 36.7842 23.609 37.0105 23.4719 37.2702C23.3263 37.5536 23.2535 37.8689 23.2603 38.1874V40.5107C23.2527 40.8332 23.3273 41.1523 23.477 41.438C23.6166 41.6911 23.8101 41.9105 24.0439 42.0805C24.2875 42.2592 24.5603 42.3939 24.8502 42.4787C25.1455 42.5667 25.4518 42.6116 25.7599 42.6122C26.2009 42.6119 26.6345 42.4992 27.0198 42.2846C27.4398 42.0448 27.7878 41.6967 28.0277 41.2767L26.8862 40.6392C26.774 40.8766 26.5824 41.0673 26.3445 41.1784Z" fill="#9296A1"/>
<path id="Vector_5" d="M32.2711 36.1543L30.0007 38.8127V36.1543H28.6778V42.5294H30.0007V40.4052L30.2527 40.1608L32.2433 42.5294H33.8837L31.1447 39.2788L33.8837 36.1543H32.2711Z" fill="#9296A1"/>
<path id="Vector_6" d="M36.6101 34.4434L35.7559 35.7234H36.9806L38.1422 34.4434H36.6101Z" fill="#9296A1"/>
<path id="Vector_7" d="M34.3776 42.5292H38.6991V41.2416H35.7106V39.9817H38.4572V38.6941H35.7106V37.4417H38.6991V36.144H34.3776V42.5292Z" fill="#9296A1"/>
<path id="Vector_8" d="M45.0313 39.4149C45.0349 39.4858 45.0425 39.5565 45.054 39.6266C45.0691 39.7324 45.0842 39.8508 45.1019 39.9869C45.1195 40.123 45.1397 40.259 45.1623 40.4002C45.185 40.5413 45.2027 40.6521 45.2203 40.7655L45.1296 40.7832L44.6785 39.6316L42.6627 36.1543H41.3575V42.5294H42.6904V39.4225L42.5191 38.3339L42.6073 38.3163L42.9953 39.1806L44.9406 42.5294H46.3643V36.1543H45.0414L45.0313 39.4149Z" fill="#9296A1"/>
<path id="Vector_9" d="M51.7088 36.6002C51.4547 36.4186 51.1707 36.283 50.8697 36.1995C50.5585 36.1094 50.2361 36.0636 49.9122 36.0635C49.5877 36.0642 49.2649 36.1083 48.9521 36.1945C48.6512 36.2749 48.3677 36.4099 48.1155 36.5926C47.8719 36.7677 47.6705 36.995 47.5259 37.2579C47.3699 37.5434 47.2917 37.8649 47.2991 38.1902V40.5034C47.2917 40.8286 47.3699 41.1501 47.5259 41.4357C47.6713 41.6987 47.8726 41.9266 48.1155 42.1034C48.3684 42.2844 48.6518 42.4184 48.9521 42.499C49.2649 42.5853 49.5877 42.6293 49.9122 42.6301C50.2361 42.6299 50.5585 42.5841 50.8697 42.494C51.1707 42.4106 51.4547 42.275 51.7088 42.0934C51.9503 41.917 52.1513 41.691 52.2984 41.4306C52.4528 41.1464 52.5302 40.8267 52.5227 40.5034V38.1902C52.5299 37.8668 52.4526 37.5472 52.2984 37.2629C52.1513 37.0025 51.9503 36.7766 51.7088 36.6002ZM51.2048 40.5034C51.2081 40.6281 51.17 40.7503 51.0965 40.8511C51.0195 40.9562 50.9195 41.0424 50.8042 41.1031C50.6729 41.1723 50.5331 41.224 50.3884 41.2568C50.2339 41.2923 50.0758 41.3101 49.9172 41.3097C49.7564 41.3104 49.5959 41.2943 49.4384 41.2618C49.2942 41.2326 49.155 41.1826 49.0252 41.1132C48.9109 41.051 48.8112 40.9651 48.7329 40.8612C48.6563 40.7579 48.6164 40.6319 48.6195 40.5034V38.1902C48.6177 38.0634 48.6575 37.9394 48.7329 37.8374C48.8115 37.7338 48.9111 37.6479 49.0252 37.5854C49.1546 37.5166 49.2928 37.4658 49.4359 37.4342C49.5901 37.3966 49.7484 37.378 49.9071 37.3788C50.068 37.379 50.2285 37.3959 50.3859 37.4292C50.5301 37.4584 50.6693 37.5085 50.7991 37.5779C50.9144 37.6387 51.0143 37.7248 51.0914 37.8299C51.168 37.9341 51.2079 38.0608 51.2048 38.1902V40.5034Z" fill="#9296A1"/>
<path id="Vector_10" d="M55.9269 39.6844L55.685 40.9997H55.5842L55.3247 39.6844L54.1177 36.144H52.7041L55.0097 42.5292H56.2873L58.5929 36.144H57.1793L55.9269 39.6844Z" fill="#9296A1"/>
<path id="Vector_11" d="M59.0968 42.5292H63.4208V41.2416H60.4298V39.9817H63.1764V38.6941H60.4298V37.4417H63.4208V36.144H59.0968V42.5292Z" fill="#9296A1"/>
<path id="Vector_12" d="M60.4752 35.7234H61.6998L62.8614 34.4434H61.3294L60.4752 35.7234Z" fill="#9296A1"/>
<path id="Vector_13" d="M69.0122 39.8206L67.4625 36.1543H66.0767V42.5294H67.3996V39.9995L67.2559 38.7673H67.3466L67.6515 39.6392L68.536 41.6928H69.5263L70.3981 39.6493L70.7055 38.7572H70.8038L70.6425 39.992V42.5294H71.9654V36.1543H70.5795L69.0122 39.8206Z" fill="#9296A1"/>
<path id="Vector_14" d="M73.0817 42.5292H77.4057V41.2416H74.4147V39.9817H77.1613V38.6941H74.4147V37.4417H77.4057V36.144H73.0817V42.5292Z" fill="#9296A1"/>
<path id="Vector_15" d="M82.0195 39.2308C81.8135 39.0665 81.5784 38.9425 81.3265 38.8654C81.0622 38.7803 80.7929 38.7113 80.5202 38.6588C80.3841 38.6286 80.248 38.5983 80.1145 38.5731C79.993 38.5493 79.8752 38.5095 79.7642 38.4547C79.6671 38.4092 79.5811 38.3429 79.5122 38.2607C79.4445 38.1701 79.4106 38.0586 79.4165 37.9457C79.4216 37.8445 79.4528 37.7464 79.5072 37.661C79.5623 37.5787 79.6367 37.5112 79.7239 37.4644C79.8185 37.4099 79.9216 37.3716 80.0288 37.351C80.1473 37.3263 80.2681 37.3145 80.3891 37.3157C80.5937 37.3142 80.7955 37.3636 80.9763 37.4594C81.1707 37.5702 81.3344 37.7279 81.4525 37.918L82.5411 37.1897C82.3048 36.817 81.9699 36.5169 81.5735 36.3229C81.2021 36.1527 80.7977 36.0666 80.3891 36.071C80.1062 36.0699 79.8245 36.1089 79.5526 36.1869C79.2925 36.2604 79.0471 36.378 78.8269 36.5346C78.6138 36.689 78.4345 36.8854 78.3002 37.1116C78.158 37.3538 78.0776 37.6273 78.0659 37.9079V37.9608C78.0577 38.25 78.1163 38.5371 78.2372 38.7999C78.3435 39.0293 78.4993 39.2324 78.6933 39.3946C78.8859 39.5525 79.1052 39.6745 79.3409 39.7549C79.5824 39.8382 79.8313 39.8981 80.0842 39.9338C80.2455 39.959 80.4043 39.9842 80.5554 40.0144C80.6937 40.039 80.8278 40.0831 80.9536 40.1455C81.0534 40.1991 81.1396 40.275 81.2056 40.3672C81.2687 40.4531 81.3007 40.558 81.2963 40.6646C81.3017 40.7718 81.2766 40.8784 81.224 40.972C81.1714 41.0657 81.0934 41.1425 80.9989 41.1937C80.8105 41.3045 80.5951 41.3611 80.3765 41.3575H80.3312C80.069 41.3487 79.8115 41.2852 79.5752 41.171C79.3301 41.0618 79.1231 40.8819 78.9806 40.6545L77.9727 41.4104C78.2216 41.7986 78.5695 42.1135 78.9806 42.3226C79.3554 42.519 79.7719 42.6227 80.1951 42.625C80.4833 42.6251 80.7701 42.5843 81.0468 42.504C81.3166 42.428 81.5721 42.308 81.8028 42.1487C82.0395 42.0026 82.2423 41.8076 82.3974 41.5767C82.542 41.3363 82.6283 41.0653 82.6494 40.7855V40.6394C82.6575 40.3675 82.605 40.0972 82.4957 39.8481C82.3896 39.6067 82.2261 39.3947 82.0195 39.2308Z" fill="#9296A1"/>
<path id="Vector_16" d="M83.0248 37.4795H84.8517V42.5292H86.1847V37.4795H88.014V36.144H83.0248V37.4795Z" fill="#9296A1"/>
<path id="Vector_17" d="M92.8798 36.6002C92.6266 36.4186 92.3434 36.2829 92.0432 36.1995C91.7312 36.1093 91.408 36.0634 91.0832 36.0635C90.7596 36.0644 90.4376 36.1085 90.1256 36.1945C89.8242 36.2754 89.5399 36.4103 89.2865 36.5926C89.0444 36.7693 88.8433 36.9962 88.6969 37.2579C88.543 37.5441 88.4658 37.8653 88.4727 38.1902V40.5034C88.4658 40.8283 88.543 41.1494 88.6969 41.4357C88.8439 41.6976 89.0449 41.9252 89.2865 42.1034C89.5406 42.284 89.8247 42.4179 90.1256 42.499C90.4376 42.5851 90.7596 42.6291 91.0832 42.6301C91.408 42.6301 91.7312 42.5843 92.0432 42.494C92.3434 42.4106 92.6266 42.275 92.8798 42.0934C93.1226 41.9184 93.3239 41.6922 93.4694 41.4306C93.6259 41.1471 93.7041 40.8271 93.6962 40.5034V38.1902C93.7039 37.8665 93.6256 37.5465 93.4694 37.2629C93.3239 37.0014 93.1226 36.7751 92.8798 36.6002ZM92.3758 40.5034C92.3787 40.6276 92.3416 40.7495 92.27 40.8511C92.192 40.9563 92.0912 41.0424 91.9752 41.1031C91.845 41.1727 91.706 41.2244 91.5619 41.2568C91.4065 41.2924 91.2476 41.3101 91.0882 41.3097C90.9282 41.3103 90.7686 41.2942 90.612 41.2618C90.4676 41.2331 90.3283 41.183 90.1987 41.1132C90.0836 41.0511 89.9831 40.9652 89.9039 40.8612C89.8292 40.757 89.7903 40.6315 89.793 40.5034V38.1902C89.7914 38.0638 89.8302 37.9402 89.9039 37.8374C89.9834 37.7337 90.0839 37.6478 90.1987 37.5854C90.327 37.5162 90.4645 37.4653 90.6069 37.4342C90.762 37.3966 90.9211 37.378 91.0806 37.3788C91.2407 37.3791 91.4003 37.396 91.5569 37.4292C91.7019 37.4584 91.842 37.5084 91.9727 37.5779C92.0874 37.6394 92.1872 37.7254 92.265 37.8299C92.3407 37.9344 92.3797 38.0611 92.3758 38.1902V40.5034Z" fill="#9296A1"/>
<path id="Vector_18" d="M101.094 42.529H108.603C109.158 42.5283 109.691 42.3075 110.083 41.9149C110.476 41.5224 110.697 40.9902 110.697 40.435V18.8555L101.094 28.4584V42.529Z" fill="white"/>
<path id="Vector_19" d="M123.153 6.40039L113.55 16.0033H124.239V42.6301H129.492C130.646 42.6287 131.751 42.1701 132.566 41.3547C133.382 40.5394 133.84 39.4339 133.842 38.2809V16.0033H144.866C145.147 16.003 145.425 15.9472 145.684 15.8392C145.944 15.7312 146.179 15.5731 146.378 15.3739C146.576 15.1747 146.733 14.9384 146.84 14.6784C146.947 14.4185 147.001 14.14 147 13.859V6.40039H123.153Z" fill="white"/>
<path id="Vector_20" d="M79.9633 4.49784L83.1382 0H79.8297L78.1112 2.11663L76.3902 0H73.0817L76.2592 4.49784H79.9633Z" fill="#82A81C"/>
<path id="Vector_21" d="M29.6454 23.5476C29.6454 18.7827 27.1256 16.2654 22.3632 16.2654H7.28222C5.36717 16.2654 4.51044 15.4087 4.51044 13.4936C4.51044 11.5786 5.36465 10.7219 7.28222 10.7219H22.3632C24.2808 10.7219 25.135 11.5761 25.135 13.4936V14.0732H29.6454V13.4936C29.6454 8.7287 27.1256 6.21143 22.3632 6.21143H7.28222C2.5198 6.21143 0 8.7287 0 13.4936C0 18.2586 2.5198 20.7759 7.28222 20.7759H22.3632C24.2808 20.7759 25.135 21.6301 25.135 23.5476C25.135 25.4652 24.2808 26.3194 22.3632 26.3194H7.28222C5.36717 26.3194 4.51044 25.4652 4.51044 23.5476V22.9681H0V23.5476C0 28.3126 2.5198 30.8299 7.28222 30.8299H22.3632C27.1281 30.8299 29.6454 28.3126 29.6454 23.5476Z" fill="#82A81C"/>
<path id="Vector_22" d="M61.4831 15.1693C61.4831 9.22511 58.4593 6.21143 52.5252 6.21143H40.7955C34.8513 6.21143 31.8376 9.23518 31.8376 15.1693V30.8299H36.3481V15.1693C36.3481 12.1456 37.7617 10.7219 40.7955 10.7219H52.5252C55.5489 10.7219 56.9726 12.1355 56.9726 15.1693C56.9726 18.2031 55.559 19.6168 52.5252 19.6168H43.1515L38.6411 24.1272H52.5252C58.4593 24.1272 61.4831 21.1135 61.4831 15.1693Z" fill="#82A81C"/>
<path id="Vector_23" d="M86.0385 30.8299C90.8034 30.8299 93.3207 28.3101 93.3207 23.5476C93.3207 18.7852 90.8009 16.2654 86.0385 16.2654H70.9575C69.0425 16.2654 68.1857 15.4087 68.1857 13.4936C68.1857 11.5786 69.0425 10.7219 70.9575 10.7219H86.0385C87.9561 10.7219 88.8103 11.5761 88.8103 13.4936V14.0732H93.3207V13.4936C93.3207 8.7287 90.8009 6.21143 86.0385 6.21143H70.9575C66.1926 6.21143 63.6753 8.73122 63.6753 13.4936C63.6753 18.2561 66.1951 20.7759 70.9575 20.7759H86.0385C87.9561 20.7759 88.8103 21.6301 88.8103 23.5476C88.8103 25.4652 87.9561 26.3194 86.0385 26.3194H70.9575C69.0425 26.3194 68.1857 25.4652 68.1857 23.5476V22.9681H63.6753V23.5476C63.6753 28.3126 66.1951 30.8299 70.9575 30.8299H86.0385Z" fill="#82A81C"/>
<path id="Vector_24" d="M101.094 11.6592V21.305L115.996 6.40039H106.353C104.959 6.40172 103.622 6.95621 102.636 7.94214C101.65 8.92807 101.096 10.2649 101.094 11.6592Z" fill="#82A81C"/>
</g>
</g>
</g>
<defs>
<clipPath id="clip0_2_100">
<rect width="147" height="42.6299" fill="white"/>
</clipPath>
</defs>
</svg>
