<svg width="265" height="87" viewBox="0 0 265 87" fill="none" xmlns="http://www.w3.org/2000/svg">
<g clip-path="url(#clip0_1_12)" filter="url(#filter0_d_1_12)">
<path d="M23.9847 68.8144L21.6602 73.4463L19.3357 68.8144H16.9201H16.7162H14.1445L10.2371 73.4331V68.8144H7.96024V79.8906H10.2371V76.2L10.6707 75.7753L14.0968 79.8906H16.9201L12.206 74.2431L16.7943 68.9545L20.5283 75.6527V79.8906H22.8094V75.6527L26.6345 68.8144H23.9847Z" fill="#88BD2F"/>
<path d="M33.4953 74.1599C33.1397 73.8761 32.7355 73.661 32.3027 73.5251C31.8474 73.3782 31.384 73.2584 30.9149 73.1661L30.2167 73.0172C30.006 72.9766 29.8018 72.9074 29.6095 72.8115C29.4423 72.7324 29.2943 72.6173 29.1758 72.4744C29.0608 72.3164 29.004 72.1229 29.0154 71.9271C29.0207 71.7514 29.0732 71.5804 29.1672 71.4324C29.2631 71.2905 29.3909 71.1735 29.5401 71.0909C29.7042 70.9955 29.8831 70.9288 30.0692 70.8939C30.2731 70.8508 30.4811 70.8303 30.6894 70.8326C31.0401 70.83 31.3859 70.9158 31.6955 71.0822C32.031 71.2736 32.313 71.5477 32.5152 71.879L34.393 70.6138C33.9864 69.9661 33.4099 69.4448 32.7277 69.1077C32.0882 68.8128 31.3924 68.6633 30.6894 68.67C30.201 68.6683 29.7149 68.7361 29.2452 68.8713C28.7987 68.9982 28.3775 69.2026 28.0006 69.4755C27.6317 69.7413 27.3228 70.083 27.0942 70.478C26.8495 70.8988 26.711 71.3739 26.6909 71.8615V71.9534C26.6745 72.456 26.7755 72.9554 26.9858 73.4112C27.1671 73.8097 27.4337 74.1626 27.7664 74.4444C28.0984 74.7178 28.4758 74.9298 28.8809 75.0705C29.2967 75.2148 29.7251 75.3188 30.1603 75.3813C30.4378 75.4251 30.7111 75.4689 30.9756 75.5214C31.2122 75.564 31.4415 75.6407 31.6565 75.7491C31.8283 75.8423 31.9767 75.9741 32.0902 76.1343C32.1989 76.2836 32.254 76.4658 32.2463 76.6509C32.2561 76.8374 32.2132 77.0228 32.1226 77.1855C32.032 77.3483 31.8974 77.4817 31.7346 77.5703C31.412 77.7632 31.0426 77.8617 30.6677 77.8548H30.5896C30.1383 77.8396 29.6952 77.7292 29.2886 77.5309C28.8667 77.341 28.5104 77.0286 28.2651 76.6334L26.5304 77.9468C26.9584 78.6217 27.5573 79.1688 28.2651 79.5316C28.9118 79.8728 29.6301 80.053 30.3598 80.0569C30.8558 80.0568 31.3492 79.9861 31.8256 79.8468C32.2894 79.713 32.7287 79.5046 33.1267 79.2295C33.5224 78.9714 33.8606 78.6329 34.1198 78.2357C34.3707 77.8189 34.5193 77.3476 34.5535 76.861V76.6071C34.5675 76.1348 34.4771 75.6652 34.2889 75.2325C34.114 74.8155 33.8417 74.4475 33.4953 74.1599Z" fill="#88BD2F"/>
<path d="M42.1819 76.2481C42.1813 76.4858 42.1168 76.7188 41.9954 76.9223C41.8854 77.1126 41.7378 77.278 41.5617 77.4083C41.3645 77.5444 41.1439 77.6424 40.9112 77.6972C40.663 77.7599 40.4082 77.7923 40.1523 77.7935C39.9035 77.7921 39.6559 77.7597 39.415 77.6972C39.1853 77.6416 38.9677 77.5436 38.7732 77.4083C38.5961 77.2792 38.4483 77.1135 38.3395 76.9223C38.2234 76.7157 38.1649 76.4812 38.1704 76.2438V68.8013H35.8588V76.2438C35.842 76.7937 35.9538 77.3399 36.1851 77.8381C36.4165 78.3363 36.7608 78.7725 37.1902 79.1113C37.6016 79.4343 38.0694 79.6764 38.5693 79.8249C39.0832 79.9784 39.6163 80.0566 40.1523 80.0569C40.6953 80.0566 41.2356 79.9785 41.7569 79.8249C42.2599 79.6774 42.7307 79.4353 43.1447 79.1113C43.5723 78.7738 43.9155 78.3398 44.1468 77.844C44.378 77.3483 44.4908 76.8047 44.4761 76.2569V68.8144H42.1819V76.2481Z" fill="#88BD2F"/>
<path d="M51.3412 77.544C50.9809 77.7287 50.583 77.8261 50.1789 77.8286H50.1182C49.8848 77.8286 49.6526 77.7947 49.4287 77.7279C49.2168 77.665 49.0173 77.5658 48.8389 77.4346C48.6753 77.319 48.5379 77.1698 48.4356 76.9968C48.3341 76.809 48.2833 76.5977 48.2881 76.3839V72.3474C48.2851 72.1313 48.339 71.9183 48.4442 71.7301C48.5522 71.5455 48.7005 71.3883 48.8779 71.2704C49.0617 71.1419 49.2634 71.0416 49.4764 70.9728C49.7032 70.8982 49.9404 70.8612 50.1789 70.8633H50.2353C50.6392 70.863 51.0374 70.959 51.3976 71.1435C51.7995 71.3311 52.1266 71.6505 52.3257 72.0497L54.1558 71.0516C53.9813 70.6605 53.7423 70.3023 53.4489 69.9921C53.174 69.7007 52.8584 69.4514 52.5121 69.2522C52.1795 69.0548 51.8201 68.9073 51.4453 68.8144C51.0855 68.7199 50.7155 68.6714 50.3437 68.67C49.8031 68.6687 49.2653 68.7484 48.7478 68.9064C48.2509 69.0543 47.784 69.2899 47.3687 69.6025C46.9649 69.9094 46.6332 70.3026 46.3973 70.7539C46.1466 71.2462 46.0214 71.7939 46.033 72.3474V76.3839C46.02 76.9441 46.1483 77.4985 46.4059 77.9949C46.6462 78.4347 46.9794 78.8158 47.3817 79.1113C47.8009 79.4217 48.2705 79.6558 48.7695 79.803C49.2776 79.9559 49.8049 80.0341 50.3351 80.0351C51.0941 80.0346 51.8404 79.8387 52.5035 79.4659C53.2263 79.0492 53.8254 78.4445 54.2382 77.7147L52.2736 76.6071C52.0805 77.0196 51.7507 77.351 51.3412 77.544Z" fill="#88BD2F"/>
<path d="M61.5413 68.8144L57.6339 73.4331V68.8144H55.3571V79.8906H57.6339V76.2L58.0676 75.7753L61.4936 79.8906H64.3169L59.6028 74.2431L64.3169 68.8144H61.5413Z" fill="#88BD2F"/>
<path d="M69.0093 65.8418L67.5391 68.0658H69.6468L71.6461 65.8418H69.0093Z" fill="#88BD2F"/>
<path d="M65.1669 79.8906H72.6045V77.6535H67.4611V75.4645H72.1882V73.2274H67.4611V71.0515H72.6045V68.7969H65.1669V79.8906Z" fill="#88BD2F"/>
<path d="M83.5029 74.4795C83.509 74.6027 83.522 74.7255 83.5419 74.8472C83.5679 75.0311 83.594 75.2368 83.6243 75.4733C83.6547 75.7097 83.6894 75.9461 83.7284 76.1912C83.7674 76.4364 83.7978 76.629 83.8281 76.826L83.672 76.8567L82.8957 74.856L79.4263 68.8144H77.1798V79.8906H79.474V74.4926L79.1791 72.6013L79.3309 72.5707L79.9988 74.0723L83.3468 79.8906H85.7971V68.8144H83.5202L83.5029 74.4795Z" fill="#88BD2F"/>
<path d="M94.9954 69.5893C94.5581 69.2738 94.0693 69.0382 93.5512 68.8932C93.0157 68.7367 92.4609 68.6571 91.9033 68.6568C91.3449 68.6581 90.7892 68.7347 90.2509 68.8845C89.7331 69.0242 89.2451 69.2586 88.8111 69.5762C88.3919 69.8804 88.0452 70.2753 87.7963 70.732C87.5279 71.2281 87.3933 71.7867 87.406 72.3518V76.3707C87.3933 76.9359 87.5279 77.4945 87.7963 77.9906C88.0465 78.4475 88.3929 78.8435 88.8111 79.1507C89.2463 79.4651 89.7341 79.6979 90.2509 79.838C90.7892 79.9879 91.3449 80.0644 91.9033 80.0657C92.4609 80.0655 93.0157 79.9859 93.5512 79.8293C94.0693 79.6844 94.5581 79.4488 94.9954 79.1332C95.4111 78.8268 95.7571 78.4342 96.0102 77.9818C96.276 77.488 96.4091 76.9326 96.3962 76.3707V72.3518C96.4087 71.79 96.2756 71.2347 96.0102 70.7407C95.7571 70.2883 95.4111 69.8958 94.9954 69.5893ZM94.128 76.3707C94.1337 76.5874 94.0681 76.7998 93.9416 76.9749C93.809 77.1575 93.637 77.3073 93.4385 77.4127C93.2126 77.533 92.972 77.6228 92.7229 77.6797C92.4569 77.7415 92.1849 77.7723 91.9119 77.7717C91.6352 77.7728 91.359 77.745 91.0879 77.6885C90.8397 77.6378 90.6001 77.5508 90.3767 77.4302C90.1799 77.3223 90.0084 77.173 89.8736 76.9924C89.7418 76.8129 89.6731 76.5941 89.6785 76.3707V72.3518C89.6753 72.1314 89.7439 71.9161 89.8736 71.7389C90.0089 71.5588 90.1803 71.4096 90.3767 71.3011C90.5994 71.1816 90.8373 71.0932 91.0836 71.0384C91.349 70.973 91.6214 70.9407 91.8946 70.9421C92.1715 70.9424 92.4477 70.9717 92.7186 71.0297C92.9668 71.0804 93.2065 71.1674 93.4298 71.288C93.6281 71.3936 93.8001 71.5433 93.9329 71.7258C94.0648 71.9069 94.1334 72.1271 94.128 72.3518V76.3707Z" fill="#88BD2F"/>
<path d="M102.255 74.9479L101.839 77.2332H101.665L101.219 74.9479L99.1414 68.7969H96.7084L100.677 79.8906H102.875L106.844 68.7969H104.411L102.255 74.9479Z" fill="#88BD2F"/>
<path d="M107.711 79.8906H115.153V77.6535H110.005V75.4645H114.732V73.2274H110.005V71.0515H115.153V68.7969H107.711V79.8906Z" fill="#88BD2F"/>
<path d="M110.083 68.0658H112.191L114.19 65.8418H111.553L110.083 68.0658Z" fill="#88BD2F"/>
<path d="M124.776 75.1843L122.109 68.8144H119.724V79.8906H122.001V75.4951L121.753 73.3543H121.91L122.434 74.8691L123.957 78.4371H125.661L127.161 74.8866L127.691 73.3368H127.86L127.582 75.482V79.8906H129.859V68.8144H127.474L124.776 75.1843Z" fill="#88BD2F"/>
<path d="M131.78 79.8906H139.222V77.6535H134.074V75.4645H138.801V73.2274H134.074V71.0515H139.222V68.7969H131.78V79.8906Z" fill="#88BD2F"/>
<path d="M147.163 74.1599C146.808 73.8744 146.404 73.6591 145.97 73.5251C145.515 73.3772 145.052 73.2573 144.582 73.1661C144.348 73.1136 144.114 73.061 143.884 73.0172C143.675 72.9759 143.472 72.9067 143.281 72.8115C143.114 72.7324 142.966 72.6173 142.848 72.4744C142.731 72.317 142.673 72.1234 142.683 71.9271C142.692 71.7514 142.745 71.5809 142.839 71.4324C142.934 71.2895 143.062 71.1722 143.212 71.0909C143.375 70.9962 143.552 70.9296 143.737 70.8939C143.941 70.851 144.148 70.8305 144.357 70.8327C144.709 70.83 145.056 70.9158 145.367 71.0822C145.702 71.2748 145.984 71.5487 146.187 71.879L148.06 70.6138C147.654 69.9661 147.077 69.4448 146.395 69.1077C145.756 68.812 145.06 68.6625 144.357 68.67C143.87 68.6681 143.385 68.7359 142.917 68.8713C142.469 68.999 142.047 69.2034 141.668 69.4755C141.301 69.7437 140.993 70.0849 140.762 70.478C140.517 70.8988 140.378 71.3739 140.358 71.8615V71.9534C140.344 72.4558 140.445 72.9547 140.653 73.4112C140.836 73.8099 141.104 74.1627 141.438 74.4444C141.77 74.7187 142.147 74.9308 142.553 75.0705C142.968 75.2152 143.397 75.3192 143.832 75.3813C144.11 75.4251 144.383 75.4689 144.643 75.5214C144.881 75.564 145.112 75.6407 145.328 75.7491C145.5 75.8423 145.648 75.9741 145.762 76.1343C145.871 76.2836 145.926 76.4658 145.918 76.6509C145.927 76.8373 145.884 77.0225 145.794 77.1852C145.703 77.3478 145.569 77.4813 145.406 77.5703C145.082 77.7627 144.711 77.8612 144.335 77.8548H144.257C143.806 77.8396 143.363 77.7292 142.956 77.5309C142.534 77.341 142.178 77.0286 141.933 76.6334L140.198 77.9468C140.626 78.6212 141.225 79.1683 141.933 79.5316C142.578 79.8728 143.295 80.0529 144.023 80.0569C144.519 80.0571 145.012 79.9864 145.489 79.8468C145.953 79.7148 146.393 79.5062 146.79 79.2295C147.197 78.9757 147.546 78.6369 147.813 78.2357C148.062 77.818 148.211 77.3472 148.247 76.8611V76.6071C148.261 76.1348 148.171 75.6652 147.982 75.2325C147.8 74.8129 147.518 74.4447 147.163 74.1599Z" fill="#88BD2F"/>
<path d="M148.893 71.1172H152.037V79.8906H154.331V71.1172H157.48V68.7969H148.893V71.1172Z" fill="#88BD2F"/>
<path d="M165.854 69.5893C165.419 69.2738 164.931 69.0381 164.414 68.8932C163.877 68.7364 163.321 68.6568 162.762 68.6568C162.205 68.6585 161.651 68.735 161.114 68.8845C160.595 69.0251 160.106 69.2594 159.67 69.5762C159.253 69.8832 158.907 70.2774 158.655 70.732C158.39 71.2293 158.257 71.7873 158.269 72.3518V76.3707C158.257 76.9352 158.39 77.4932 158.655 77.9906C158.908 78.4456 159.254 78.841 159.67 79.1507C160.107 79.4644 160.596 79.6971 161.114 79.838C161.651 79.9875 162.205 80.0641 162.762 80.0657C163.321 80.0658 163.877 79.9862 164.414 79.8293C164.931 79.6844 165.419 79.4488 165.854 79.1332C166.272 78.8293 166.619 78.4361 166.869 77.9818C167.138 77.4892 167.273 76.9332 167.259 76.3707V72.3518C167.273 71.7894 167.138 71.2335 166.869 70.7407C166.619 70.2864 166.272 69.8933 165.854 69.5893ZM164.987 76.3707C164.992 76.5866 164.928 76.7984 164.805 76.9749C164.671 77.1576 164.497 77.3073 164.297 77.4127C164.073 77.5337 163.834 77.6235 163.586 77.6797C163.319 77.7415 163.045 77.7724 162.771 77.7717C162.495 77.7726 162.221 77.7448 161.951 77.6885C161.703 77.6386 161.463 77.5515 161.24 77.4302C161.042 77.3223 160.869 77.1731 160.733 76.9924C160.604 76.8115 160.537 76.5933 160.542 76.3707V72.3518C160.539 72.1322 160.606 71.9174 160.733 71.7389C160.869 71.5587 161.042 71.4095 161.24 71.3011C161.461 71.1808 161.697 71.0924 161.942 71.0384C162.209 70.973 162.483 70.9407 162.758 70.9421C163.033 70.9426 163.308 70.972 163.577 71.0297C163.827 71.0803 164.068 71.1673 164.293 71.288C164.491 71.3949 164.662 71.5443 164.796 71.7258C164.926 71.9074 164.994 72.1276 164.987 72.3518V76.3707Z" fill="#88BD2F"/>
<path d="M179.992 79.8906H192.916C193.871 79.8894 194.787 79.5058 195.463 78.8237C196.139 78.1417 196.519 77.217 196.52 76.2525V38.76L179.992 55.4443V79.8906Z" fill="#88BD2F"/>
<path d="M217.957 17.1199L201.429 33.8042H219.826V80.0657H228.868C230.852 80.0634 232.755 79.2665 234.158 77.8499C235.562 76.4334 236.351 74.5127 236.353 72.5094V33.8042H255.327C255.81 33.8036 256.289 33.7067 256.736 33.5191C257.182 33.3314 257.588 33.0567 257.929 32.7106C258.27 32.3646 258.54 31.9539 258.724 31.5023C258.908 31.0506 259.002 30.5668 259 30.0786V17.1199H217.957Z" fill="#88BD2F"/>
<path d="M143.624 13.8146L149.088 6H143.394L140.436 9.67745L137.474 6H131.78L137.249 13.8146H143.624Z" fill="#82A81C"/>
<path d="M57.0224 46.9117C57.0224 38.633 52.6856 34.2595 44.4891 34.2595H18.5333C15.2374 34.2595 13.7629 32.771 13.7629 29.4438C13.7629 26.1166 15.233 24.6281 18.5333 24.6281H44.4891C47.7894 24.6281 49.2595 26.1122 49.2595 29.4438V30.4507H57.0224V29.4438C57.0224 21.1651 52.6856 16.7916 44.4891 16.7916H18.5333C10.3368 16.7916 6 21.1651 6 29.4438C6 37.7224 10.3368 42.096 18.5333 42.096H44.4891C47.7894 42.096 49.2595 43.5801 49.2595 46.9117C49.2595 50.2433 47.7894 51.7274 44.4891 51.7274H18.5333C15.2374 51.7274 13.7629 50.2433 13.7629 46.9117V45.9048H6V46.9117C6 55.1903 10.3368 59.5639 18.5333 59.5639H44.4891C52.6899 59.5639 57.0224 55.1903 57.0224 46.9117Z" fill="#82A81C"/>
<path d="M111.818 32.3551C111.818 22.0276 106.614 16.7916 96.4005 16.7916H76.2127C65.9822 16.7916 60.7954 22.0451 60.7954 32.3551V59.5639H68.5583V32.3551C68.5583 27.1016 70.9912 24.6281 76.2127 24.6281H96.4005C101.605 24.6281 104.055 27.0841 104.055 32.3551C104.055 37.6261 101.622 40.0821 96.4005 40.0821H80.2676L72.5048 47.9186H96.4005C106.614 47.9186 111.818 42.6826 111.818 32.3551Z" fill="#82A81C"/>
<path d="M154.08 59.5639C162.281 59.5639 166.613 55.186 166.613 46.9117C166.613 38.6374 162.276 34.2595 154.08 34.2595H128.124C124.828 34.2595 123.354 32.771 123.354 29.4438C123.354 26.1166 124.828 24.6281 128.124 24.6281H154.08C157.38 24.6281 158.85 26.1122 158.85 29.4438V30.4507H166.613V29.4438C166.613 21.1651 162.276 16.7916 154.08 16.7916H128.124C119.923 16.7916 115.591 21.1695 115.591 29.4438C115.591 37.718 119.928 42.096 128.124 42.096H154.08C157.38 42.096 158.85 43.5801 158.85 46.9117C158.85 50.2433 157.38 51.7274 154.08 51.7274H128.124C124.828 51.7274 123.354 50.2433 123.354 46.9117V45.9048H115.591V46.9117C115.591 55.1903 119.928 59.5639 128.124 59.5639H154.08Z" fill="#82A81C"/>
<path d="M179.992 26.2566V43.0153L205.64 17.1199H189.043C186.643 17.1222 184.343 18.0856 182.646 19.7986C180.949 21.5115 179.995 23.8341 179.992 26.2566Z" fill="#82A81C"/>
</g>
<defs>
<filter id="filter0_d_1_12" x="0" y="0" width="265" height="86.0657" filterUnits="userSpaceOnUse" color-interpolation-filters="sRGB">
<feFlood flood-opacity="0" result="BackgroundImageFix"/>
<feColorMatrix in="SourceAlpha" type="matrix" values="0 0 0 0 0 0 0 0 0 0 0 0 0 0 0 0 0 0 127 0" result="hardAlpha"/>
<feOffset/>
<feGaussianBlur stdDeviation="3"/>
<feComposite in2="hardAlpha" operator="out"/>
<feColorMatrix type="matrix" values="0 0 0 0 0 0 0 0 0 0 0 0 0 0 0 0 0 0 0.6 0"/>
<feBlend mode="normal" in2="BackgroundImageFix" result="effect1_dropShadow_1_12"/>
<feBlend mode="normal" in="SourceGraphic" in2="effect1_dropShadow_1_12" result="shape"/>
</filter>
<clipPath id="clip0_1_12">
<rect width="253" height="74.0657" fill="white" transform="translate(6 6)"/>
</clipPath>
</defs>
</svg>
